
<svg xmlns="http://www.w3.org/2000/svg" viewBox="0 0 1160.17 861.54">
  <defs>
    <style>
      .cls-1, .cls-2, .cls-3 {
        stroke: #000;
        stroke-miterlimit: 10;
      }
      .cls-1, .cls-3 { fill: #000;
        stroke: #000 }
      .cls-3 { stroke-width: 3px; }
    </style>
  </defs>
  <g id="Plazas">
    <g id="_3:00_B_Plaza" data-name="3:00 B Plaza">
      <circle class="cls-2" cx="916.5" cy="272.04" r="10.6"/>
    </g>
    <g id="_3:00_G_Plaza" data-name="3:00 G Plaza">
      <circle class="cls-2" cx="1063.8" cy="272.04" r="10.1"/>
    </g>
    <g id="_4:30_G_Plaza" data-name="4:30 G Plaza">
      <circle class="cls-2" cx="935.5" cy="585.04" r="10.4"/>
    </g>
    <g id="_4:30_B_Plaza" data-name="4:30 B Plaza">
      <circle class="cls-2" cx="830.5" cy="480.04" r="10.6"/>
    </g>
    <g id="_6:00_G_Plaza" data-name="6:00 G Plaza">
      <circle class="cls-2" cx="622" cy="715.54" r="10.7"/>
    </g>
    <g id="_7:30_G_Plaza" data-name="7:30 G Plaza">
      <circle class="cls-2" cx="308.3" cy="584.84" r="10.7"/>
    </g>
    <g id="_7:30_B_Plaza" data-name="7:30 B Plaza">
      <circle class="cls-2" cx="413.5" cy="480.04" r="10.5"/>
    </g>
    <g id="_9:00_G_Plaza" data-name="9:00 G Plaza">
      <circle class="cls-2" cx="180.2" cy="272.04" r="10.4"/>
    </g>
    <g id="_9:00_B_Plaza" data-name="9:00 B Plaza">
      <circle class="cls-2" cx="327.5" cy="272.04" r="10.2"/>
    </g>
  </g>
  <g id="Block_Overlays" stroke="#f00" fill="none" stroke-width="0.5">

<path id="A_8" d="M 853.1197761109321 138.89161018190222 L 868.446790577329 170.165503720735 L 894.1899691870062 159.50233000201374 L 877.1519434901898 125.0166318762777 Z" fill="none" stroke="#f00" stroke-width="0.5"/>
<path id="A_9" d="M 868.446790577329 170.165503720735 L 879.5617700593579 203.16050630768012 L 906.5495730292344 195.9291462964115 L 894.1899691870062 159.50233000201374 Z" fill="none" stroke="#f00" stroke-width="0.5"/>
<path id="A_10" d="M 879.5617700593579 203.16050630768012 L 886.2690685652346 237.31414333708582 L 914.0156351265766 233.66123854981024 L 906.5495730292344 195.9291462964115 Z" fill="none" stroke="#f00" stroke-width="0.5"/>
<path id="A_11" d="M 886.2690685652346 237.31414333708582 L 888.5 272.04 L 916.4999999999999 272.03999999999996 L 914.0156351265766 233.66123854981024 Z" fill="none" stroke="#f00" stroke-width="0.5"/>
<path id="A_12" d="M 888.5 272.04 L 886.2695039757257 306.76591398579285 L 914.0168857758787 310.418926101294 L 916.4999999999999 272.03999999999996 Z" fill="none" stroke="#f00" stroke-width="0.5"/>
<path id="A_13" d="M 886.2695039757257 306.76591398579285 L 879.5614260996276 340.91940152858797 L 906.5503531381268 348.1510627331363 L 914.0168857758787 310.418926101294 Z" fill="none" stroke="#f00" stroke-width="0.5"/>
<path id="A_14" d="M 879.5614260996276 340.91940152858797 L 868.4495604011516 373.91564357785774 L 894.1885962577967 384.57710131208756 L 906.5503531381268 348.1510627331363 Z" fill="none" stroke="#f00" stroke-width="0.5"/>
<path id="A_15" d="M 868.4495604011516 373.91564357785774 L 853.1226478572976 405.190047821635 L 877.1520754703167 419.0634443224843 L 894.1885962577967 384.57710131208756 Z" fill="none" stroke="#f00" stroke-width="0.5"/>
<path id="A_16" d="M 853.1226478572976 405.190047821635 L 833.8615461656603 434.22341859387217 L 855.755547949099 451.0232770371641 L 877.1520754703167 419.0634443224843 Z" fill="none" stroke="#f00" stroke-width="0.5"/>
<path id="A_17" d="M 833.8615461656603 434.22341859387217 L 810.9963072796177 460.53630727961763 L 830.3877751214452 479.9277751214452 L 855.755547949099 451.0232770371641 Z" fill="none" stroke="#f00" stroke-width="0.5"/>
<path id="A_18" d="M 810.9963072796177 460.53630727961763 L 784.9072613022861 483.6932636627909 L 801.4839211810825 505.29638741379716 L 830.3877751214452 479.9277751214452 Z" fill="none" stroke="#f00" stroke-width="0.5"/>
<path id="A_19" d="M 784.9072613022861 483.6932636627909 L 756.0155104946496 503.2956477752287 L 769.524022335615 526.6930766184266 L 801.4839211810825 505.29638741379716 Z" fill="none" stroke="#f00" stroke-width="0.5"/>
<path id="A_20" d="M 756.0155104946496 503.2956477752287 L 724.7881158883738 518.985356647303 L 735.0381180539039 543.7310508896793 L 769.524022335615 526.6930766184266 Z" fill="none" stroke="#f00" stroke-width="0.5"/>
<path id="A_21" d="M 724.7881158883738 518.985356647303 L 691.7438458230835 530.4615507232138 L 698.6114662893295 556.0918592303442 L 735.0381180539039 543.7310508896793 Z" fill="none" stroke="#f00" stroke-width="0.5"/>
<path id="A_22" d="M 691.7438458230835 530.4615507232138 L 657.4496440669395 537.5089026597361 L 660.8427918228432 563.2824186817254 L 698.6114662893295 556.0918592303442 Z" fill="none" stroke="#f00" stroke-width="0.5"/>
<path id="A_25" d="M 587.4818076094008 538.0295788710946 L 552.9870329015449 531.465924996298 L 546.3920175640128 556.078857312664 L 584.1424614947629 563.3944308551686 Z" fill="none" stroke="#f00" stroke-width="0.5"/>
<path id="A_26" d="M 552.9870329015449 531.465924996298 L 519.6232432628237 520.4064613678485 L 509.96514358391573 543.7231765994194 L 546.3920175640128 556.078857312664 Z" fill="none" stroke="#f00" stroke-width="0.5"/>
<path id="A_27" d="M 519.6232432628237 520.4064613678485 L 487.980330010263 505.034903039623 L 475.4786794554697 526.6883969789965 L 509.96514358391573 543.7231765994194 Z" fill="none" stroke="#f00" stroke-width="0.5"/>
<path id="A_28" d="M 487.980330010263 505.034903039623 L 458.6064096142012 485.6302854368165 L 443.51804570674835 505.29382411567053 L 475.4786794554697 526.6883969789965 Z" fill="none" stroke="#f00" stroke-width="0.5"/>
<path id="A_29" d="M 458.6064096142012 485.6302854368165 L 432.001250344036 462.538749655964 L 414.6131944564979 479.9268055435021 L 443.51804570674835 505.29382411567053 Z" fill="none" stroke="#f00" stroke-width="0.5"/>
<path id="A_30" d="M 432.001250344036 462.538749655964 L 408.61996238535374 436.1559250516732 L 389.2440471138645 451.02358775628056 L 414.6131944564979 479.9268055435021 Z" fill="none" stroke="#f00" stroke-width="0.5"/>
<path id="A_31" d="M 408.61996238535374 436.1559250516732 L 388.8768529031453 406.92238686529663 L 367.84581458288636 419.0646625008354 L 389.2440471138645 451.02358775628056 Z" fill="none" stroke="#f00" stroke-width="0.5"/>
<path id="A_32" d="M 388.8768529031453 406.92238686529663 L 373.1031901367894 375.34354105792596 L 350.77708190884385 384.59131788095056 L 367.84581458288636 419.0646625008354 Z" fill="none" stroke="#f00" stroke-width="0.5"/>
<path id="A_33" d="M 373.1031901367894 375.34354105792596 L 361.6447545338443 341.9359523640788 L 338.3887411847509 348.1673823601358 L 350.77708190884385 384.59131788095056 Z" fill="none" stroke="#f00" stroke-width="0.5"/>
<path id="A_34" d="M 361.6447545338443 341.9359523640788 L 354.7638205308877 307.2881367216159 L 330.9493276311174 310.42337419064796 L 338.3887411847509 348.1673823601358 Z" fill="none" stroke="#f00" stroke-width="0.5"/>
<path id="A_35" d="M 354.7638205308877 307.2881367216159 L 352.5 272.03999999999996 L 328.5 272.04 L 330.9493276311174 310.42337419064796 Z" fill="none" stroke="#f00" stroke-width="0.5"/>
<path id="A_36" d="M 352.5 272.03999999999996 L 354.7971296022403 236.79624850082013 L 330.9823617344852 233.66097483156614 L 328.5 272.04 Z" fill="none" stroke="#f00" stroke-width="0.5"/>
<path id="A_37" d="M 354.7971296022403 236.79624850082013 L 361.70421165404775 202.15997912326418 L 338.4475889345346 195.9283858468953 L 330.9823617344852 233.66097483156614 Z" fill="none" stroke="#f00" stroke-width="0.5"/>
<path id="A_38" d="M 361.70421165404775 202.15997912326418 L 373.1361505822152 168.75011160559143 L 350.80926599330775 159.50201320332712 L 338.4475889345346 195.9283858468953 Z" fill="none" stroke="#f00" stroke-width="0.5"/>
<path id="A_39" d="M 373.1361505822152 168.75011160559143 L 388.88142898697845 137.1602551379362 L 367.8485406828619 125.01691141371916 L 350.80926599330775 159.50201320332712 Z" fill="none" stroke="#f00" stroke-width="0.5"/>
<path id="B_8" d="M 877.1519434901898 125.0166318762777 L 894.1899691870062 159.50233000201374 L 918.7893027694548 149.3129524068236 L 900.1044169420406 111.76501515028383 Z" fill="none" stroke="#f00" stroke-width="0.5"/>
<path id="B_9" d="M 894.1899691870062 159.50233000201374 L 906.5495730292344 195.9291462964115 L 932.3913997192743 189.00484970387026 L 918.7893027694548 149.3129524068236 Z" fill="none" stroke="#f00" stroke-width="0.5"/>
<path id="B_10" d="M 906.5495730292344 195.9291462964115 L 914.0156351265766 233.66123854981024 L 940.6609623487124 230.15331467198263 L 932.3913997192743 189.00484970387026 Z" fill="none" stroke="#f00" stroke-width="0.5"/>
<path id="B_11" d="M 914.0156351265766 233.66123854981024 L 916.4999999999999 272.03999999999996 L 943.4984761872968 272.04 L 940.6609623487124 230.15331467198263 Z" fill="none" stroke="#f00" stroke-width="0.5"/>
<path id="B_12" d="M 916.4999999999999 272.03999999999996 L 914.0168857758787 310.418926101294 L 940.9157656908839 313.96023082440786 L 943.4984761872968 272.04 Z" fill="none" stroke="#f00" stroke-width="0.5"/>
<path id="B_13" d="M 914.0168857758787 310.418926101294 L 906.5503531381268 348.1510627331363 L 932.8853895385207 355.2075144692661 L 940.9157656908839 313.96023082440786 Z" fill="none" stroke="#f00" stroke-width="0.5"/>
<path id="B_14" d="M 906.5503531381268 348.1510627331363 L 894.1885962577967 384.57710131208756 L 919.4934403568493 395.05871093165194 L 932.8853895385207 355.2075144692661 Z" fill="none" stroke="#f00" stroke-width="0.5"/>
<path id="B_15" d="M 894.1885962577967 384.57710131208756 L 877.1520754703167 419.0634443224843 L 900.9723951500289 432.81611230174894 L 919.4934403568493 395.05871093165194 Z" fill="none" stroke="#f00" stroke-width="0.5"/>
<path id="B_16" d="M 877.1520754703167 419.0634443224843 L 855.755547949099 451.0232770371641 L 877.6598496230107 467.83103886438926 L 900.9723951500289 432.81611230174894 Z" fill="none" stroke="#f00" stroke-width="0.5"/>
<path id="B_17" d="M 855.755547949099 451.0232770371641 L 830.3877751214452 479.9277751214452 L 849.9776205775769 499.51762057757685 L 877.6598496230107 467.83103886438926 Z" fill="none" stroke="#f00" stroke-width="0.5"/>
<path id="B_18" d="M 830.3877751214452 479.9277751214452 L 801.4839211810825 505.29638741379716 L 818.4006532040712 527.3427018117114 L 849.9776205775769 499.51762057757685 Z" fill="none" stroke="#f00" stroke-width="0.5"/>
<path id="B_19" d="M 801.4839211810825 505.29638741379716 L 769.524022335615 526.6930766184266 L 783.454824869535 550.8219343973851 L 818.4006532040712 527.3427018117114 Z" fill="none" stroke="#f00" stroke-width="0.5"/>
<path id="B_20" d="M 769.524022335615 526.6930766184266 L 735.0381180539039 543.7310508896793 L 745.7223799851614 569.5251409480676 L 783.454824869535 550.8219343973851 Z" fill="none" stroke="#f00" stroke-width="0.5"/>
<path id="B_21" d="M 735.0381180539039 543.7310508896793 L 698.6114662893295 556.0918592303442 L 705.8476105519576 583.0975172693699 L 745.7223799851614 569.5251409480676 Z" fill="none" stroke="#f00" stroke-width="0.5"/>
<path id="B_22" d="M 698.6114662893295 556.0918592303442 L 660.8427918228432 563.2824186817254 L 664.5310000365328 591.2971413894445 L 705.8476105519576 583.0975172693699 Z" fill="none" stroke="#f00" stroke-width="0.5"/>
<path id="B_23" d="M 660.8427918228432 563.2824186817254 L 622.5 566.04 L 622.5 594.0400000000001 L 664.5310000365328 591.2971413894445 Z" fill="none" stroke="#f00" stroke-width="0.5"/>
<path id="B_24" d="M 622.5 566.04 L 584.1424614947629 563.3944308551686 L 580.4687839322248 591.2987823096436 L 622.5 594.0400000000001 Z" fill="none" stroke="#f00" stroke-width="0.5"/>
<path id="B_25" d="M 584.1424614947629 563.3944308551686 L 546.3920175640128 556.078857312664 L 539.1516076444308 583.1004350001697 L 580.4687839322248 591.2987823096436 Z" fill="none" stroke="#f00" stroke-width="0.5"/>
<path id="B_26" d="M 546.3920175640128 556.078857312664 L 509.96514358391573 543.7231765994194 L 499.27657095736265 569.5276735968538 L 539.1516076444308 583.1004350001697 Z" fill="none" stroke="#f00" stroke-width="0.5"/>
<path id="B_27" d="M 509.96514358391573 543.7231765994194 L 475.4786794554697 526.6883969789965 L 461.54420435895446 550.8236158229643 L 499.27657095736265 569.5276735968538 Z" fill="none" stroke="#f00" stroke-width="0.5"/>
<path id="B_28" d="M 475.4786794554697 526.6883969789965 L 443.51804570674835 505.29382411567053 L 426.598919634683 527.3432584990852 L 461.54420435895446 550.8236158229643 Z" fill="none" stroke="#f00" stroke-width="0.5"/>
<path id="B_29" d="M 443.51804570674835 505.29382411567053 L 414.6131944564979 479.9268055435021 L 395.02303269767634 499.51696730232374 L 426.598919634683 527.3432584990852 Z" fill="none" stroke="#f00" stroke-width="0.5"/>
<path id="B_30" d="M 414.6131944564979 479.9268055435021 L 389.2440471138645 451.02358775628056 L 367.34241476431896 467.8293013388799 L 395.02303269767634 499.51696730232374 Z" fill="none" stroke="#f00" stroke-width="0.5"/>
<path id="B_31" d="M 389.2440471138645 451.02358775628056 L 367.84581458288636 419.0646625008354 L 344.0318679639833 432.8136509917265 L 367.34241476431896 467.8293013388799 Z" fill="none" stroke="#f00" stroke-width="0.5"/>
<path id="B_32" d="M 367.84581458288636 419.0646625008354 L 350.77708190884385 384.59131788095056 L 325.44355437620527 395.08480856772167 L 344.0318679639833 432.8136509917265 Z" fill="none" stroke="#f00" stroke-width="0.5"/>
<path id="B_33" d="M 350.77708190884385 384.59131788095056 L 338.3887411847509 348.1673823601358 L 311.9963166800289 355.2392111924754 L 325.44355437620527 395.08480856772167 Z" fill="none" stroke="#f00" stroke-width="0.5"/>
<path id="B_34" d="M 338.3887411847509 348.1673823601358 L 330.9493276311174 310.42337419064796 L 304.0197955447783 313.96871434867444 L 311.9963166800289 355.2392111924754 Z" fill="none" stroke="#f00" stroke-width="0.5"/>
<path id="B_35" d="M 330.9493276311174 310.42337419064796 L 328.5 272.04 L 301.5015243073001 272.0400000000001 L 304.0197955447783 313.96871434867444 Z" fill="none" stroke="#f00" stroke-width="0.5"/>
<path id="B_36" d="M 328.5 272.04 L 330.9823617344852 233.66097483156614 L 304.3396917361628 230.15340078389022 L 301.5015243073001 272.0400000000001 Z" fill="none" stroke="#f00" stroke-width="0.5"/>
<path id="B_37" d="M 330.9823617344852 233.66097483156614 L 338.4475889345346 195.9283858468953 L 312.61125168517435 189.00556014555113 L 304.3396917361628 230.15340078389022 Z" fill="none" stroke="#f00" stroke-width="0.5"/>
<path id="B_38" d="M 338.4475889345346 195.9283858468953 L 350.80926599330775 159.50201320332712 L 326.212653425572 149.31376268933445 L 312.61125168517435 189.00556014555113 Z" fill="none" stroke="#f00" stroke-width="0.5"/>
<path id="B_39" d="M 350.80926599330775 159.50201320332712 L 367.8485406828619 125.01691141371916 L 344.8972026806394 111.76595023987389 L 326.212653425572 149.31376268933445 Z" fill="none" stroke="#f00" stroke-width="0.5"/>
<path id="C_8" d="M 900.1044169420406 111.76501515028383 L 918.7893027694548 149.3129524068236 L 938.7373685306811 141.0501930254133 L 918.8450070393895 100.94513041280695 Z" fill="none" stroke="#f00" stroke-width="0.5"/>
<path id="C_9" d="M 918.7893027694548 149.3129524068236 L 932.3913997192743 189.00484970387026 L 953.2469450903941 183.41662316396804 L 938.7373685306811 141.0501930254133 Z" fill="none" stroke="#f00" stroke-width="0.5"/>
<path id="C_10" d="M 932.3913997192743 189.00484970387026 L 940.6609623487124 230.15331467198263 L 962.2450908181142 227.31171025073866 L 953.2469450903941 183.41662316396804 Z" fill="none" stroke="#f00" stroke-width="0.5"/>
<path id="C_11" d="M 940.6609623487124 230.15331467198263 L 943.4984761872968 272.04 L 965.4939674171761 272.04 L 962.2450908181142 227.31171025073866 Z" fill="none" stroke="#f00" stroke-width="0.5"/>
<path id="C_12" d="M 943.4984761872968 272.04 L 940.9157656908839 313.96023082440786 L 962.8620698839608 316.8495165842392 L 965.4939674171761 272.04 Z" fill="none" stroke="#f00" stroke-width="0.5"/>
<path id="C_13" d="M 940.9157656908839 313.96023082440786 L 932.8853895385207 355.2075144692661 L 954.419672028883 360.9776080721423 L 962.8620698839608 316.8495165842392 Z" fill="none" stroke="#f00" stroke-width="0.5"/>
<path id="C_14" d="M 932.8853895385207 355.2075144692661 L 919.4934403568493 395.05871093165194 L 940.246234408892 403.65479968514364 L 954.419672028883 360.9776080721423 Z" fill="none" stroke="#f00" stroke-width="0.5"/>
<path id="C_15" d="M 919.4934403568493 395.05871093165194 L 900.9723951500289 432.81611230174894 L 920.5760955882217 444.13431402685245 L 940.246234408892 403.65479968514364 Z" fill="none" stroke="#f00" stroke-width="0.5"/>
<path id="C_16" d="M 900.9723951500289 432.81611230174894 L 877.6598496230107 467.83103886438926 L 895.7565693246347 481.71714028533586 L 920.5760955882217 444.13431402685245 Z" fill="none" stroke="#f00" stroke-width="0.5"/>
<path id="C_17" d="M 877.6598496230107 467.83103886438926 L 849.9776205775769 499.51762057757685 L 866.2284396530096 515.7684396530095 L 895.7565693246347 481.71714028533586 Z" fill="none" stroke="#f00" stroke-width="0.5"/>
<path id="C_18" d="M 849.9776205775769 499.51762057757685 L 818.4006532040712 527.3427018117114 L 832.4981376322398 545.7149012117346 L 866.2284396530096 515.7684396530095 Z" fill="none" stroke="#f00" stroke-width="0.5"/>
<path id="C_19" d="M 818.4006532040712 527.3427018117114 L 783.454824869535 550.8219343973851 L 795.1244479823592 571.0343145339768 L 832.4981376322398 545.7149012117346 Z" fill="none" stroke="#f00" stroke-width="0.5"/>
<path id="C_20" d="M 783.454824869535 550.8219343973851 L 745.7223799851614 569.5251409480676 L 754.7247752379185 591.258845661117 L 795.1244479823592 571.0343145339768 Z" fill="none" stroke="#f00" stroke-width="0.5"/>
<path id="C_21" d="M 745.7223799851614 569.5251409480676 L 705.8476105519576 583.0975172693699 L 711.9831967210929 605.9958365868 L 754.7247752379185 591.258845661117 Z" fill="none" stroke="#f00" stroke-width="0.5"/>
<path id="C_22" d="M 705.8476105519576 583.0975172693699 L 664.5310000365328 591.2971413894445 L 667.6468888483141 614.9646666463269 L 711.9831967210929 605.9958365868 Z" fill="none" stroke="#f00" stroke-width="0.5"/>
<path id="C_23" d="M 664.5310000365328 591.2971413894445 L 622.5 594.0400000000001 L 622.5 618.038573426404 L 667.6468888483141 614.9646666463269 Z" fill="none" stroke="#f00" stroke-width="0.5"/>
<path id="C_24" d="M 622.5 594.0400000000001 L 580.4687839322248 591.2987823096436 L 577.3182708196993 615.2293052413045 L 622.5 618.038573426404 Z" fill="none" stroke="#f00" stroke-width="0.5"/>
<path id="C_25" d="M 580.4687839322248 591.2987823096436 L 539.1516076444308 583.1004350001697 L 532.8771671834998 606.51696558943 L 577.3182708196993 615.2293052413045 Z" fill="none" stroke="#f00" stroke-width="0.5"/>
<path id="C_26" d="M 539.1516076444308 583.1004350001697 L 499.27657095736265 569.5276735968538 L 489.9684273863044 591.9995200466185 L 532.8771671834998 606.51696558943 Z" fill="none" stroke="#f00" stroke-width="0.5"/>
<path id="C_27" d="M 499.27657095736265 569.5276735968538 L 461.54420435895446 550.8236158229643 L 449.3545496417214 571.9367171199335 L 489.9684273863044 591.9995200466185 Z" fill="none" stroke="#f00" stroke-width="0.5"/>
<path id="C_28" d="M 461.54420435895446 550.8236158229643 L 426.598919634683 527.3432584990852 L 411.73821878138307 546.7101009093087 L 449.3545496417214 571.9367171199335 Z" fill="none" stroke="#f00" stroke-width="0.5"/>
<path id="C_29" d="M 426.598919634683 527.3432584990852 L 395.02303269767634 499.51696730232374 L 377.75478742742087 516.7852125725792 L 411.73821878138307 546.7101009093087 Z" fill="none" stroke="#f00" stroke-width="0.5"/>
<path id="C_30" d="M 395.02303269767634 499.51696730232374 L 367.34241476431896 467.8293013388799 L 347.9778216902824 482.68827621581863 L 377.75478742742087 516.7852125725792 Z" fill="none" stroke="#f00" stroke-width="0.5"/>
<path id="C_31" d="M 367.34241476431896 467.8293013388799 L 344.0318679639833 432.8136509917265 L 322.9244455947576 445.00002697849806 L 347.9778216902824 482.68827621581863 Z" fill="none" stroke="#f00" stroke-width="0.5"/>
<path id="C_32" d="M 344.0318679639833 432.8136509917265 L 325.44355437620527 395.08480856772167 L 302.94914489190757 404.40229805369177 L 322.9244455947576 445.00002697849806 Z" fill="none" stroke="#f00" stroke-width="0.5"/>
<path id="C_33" d="M 325.44355437620527 395.08480856772167 L 311.9963166800289 355.2392111924754 L 288.5353933350497 361.52554665645107 L 302.94914489190757 404.40229805369177 Z" fill="none" stroke="#f00" stroke-width="0.5"/>
<path id="C_34" d="M 311.9963166800289 355.2392111924754 L 304.0197955447783 313.96871434867444 L 280.0767766282028 317.1208725888239 L 288.5353933350497 361.52554665645107 Z" fill="none" stroke="#f00" stroke-width="0.5"/>
<path id="C_35" d="M 304.0197955447783 313.96871434867444 L 301.5015243073001 272.0400000000001 L 277.5056922237516 272.04 L 280.0767766282028 317.1208725888239 Z" fill="none" stroke="#f00" stroke-width="0.5"/>
<path id="C_36" d="M 301.5015243073001 272.0400000000001 L 304.3396917361628 230.15340078389022 L 280.6842099112296 227.03909752000456 L 277.5056922237516 272.04 Z" fill="none" stroke="#f00" stroke-width="0.5"/>
<path id="C_37" d="M 304.3396917361628 230.15340078389022 L 312.61125168517435 189.00556014555113 L 289.7110230517823 182.86946237674562 L 280.6842099112296 227.03909752000456 Z" fill="none" stroke="#f00" stroke-width="0.5"/>
<path id="C_38" d="M 312.61125168517435 189.00556014555113 L 326.212653425572 149.31376268933445 L 304.46131735525154 140.30406428927265 L 289.7110230517823 182.86946237674562 Z" fill="none" stroke="#f00" stroke-width="0.5"/>
<path id="C_39" d="M 326.212653425572 149.31376268933445 L 344.8972026806394 111.76595023987389 L 324.6577284222514 100.0806843285371 L 304.46131735525154 140.30406428927265 Z" fill="none" stroke="#f00" stroke-width="0.5"/>
<path id="D_8" d="M 918.8450070393895 100.94513041280695 L 938.7373685306811 141.0501930254133 L 964.3901996694847 130.42444245445404 L 942.9784278316735 87.01169342191534 Z" fill="none" stroke="#f00" stroke-width="0.5"/>
<path id="D_9" d="M 938.7373685306811 141.0501930254133 L 953.2469450903941 183.41662316396804 L 979.9216342491271 176.26916174553435 L 964.3901996694847 130.42444245445404 Z" fill="none" stroke="#f00" stroke-width="0.5"/>
<path id="D_10" d="M 953.2469450903941 183.41662316396804 L 962.2450908181142 227.31171025073866 L 989.3427588673887 223.7442345732575 L 979.9216342491271 176.26916174553435 Z" fill="none" stroke="#f00" stroke-width="0.5"/>
<path id="D_11" d="M 962.2450908181142 227.31171025073866 L 965.4939674171761 272.04 L 992.5 272.03999999999996 L 989.3427588673887 223.7442345732575 Z" fill="none" stroke="#f00" stroke-width="0.5"/>
<path id="D_12" d="M 965.4939674171761 272.04 L 962.8620698839608 316.8495165842392 L 989.3771478423307 320.3402928211831 L 992.5 272.03999999999996 Z" fill="none" stroke="#f00" stroke-width="0.5"/>
<path id="D_13" d="M 962.8620698839608 316.8495165842392 L 954.419672028883 360.9776080721423 L 979.9841603037179 367.82759206029925 L 989.3771478423307 320.3402928211831 Z" fill="none" stroke="#f00" stroke-width="0.5"/>
<path id="D_14" d="M 954.419672028883 360.9776080721423 L 940.246234408892 403.65479968514364 L 964.4279331808547 413.6711872777114 L 979.9841603037179 367.82759206029925 Z" fill="none" stroke="#f00" stroke-width="0.5"/>
<path id="D_15" d="M 940.246234408892 403.65479968514364 L 920.5760955882217 444.13431402685245 L 942.983302158277 457.0711207718614 L 964.4279331808547 413.6711872777114 Z" fill="none" stroke="#f00" stroke-width="0.5"/>
<path id="D_16" d="M 920.5760955882217 444.13431402685245 L 895.7565693246347 481.71714028533586 L 916.0615967769787 497.2977358411732 L 942.983302158277 457.0711207718614 Z" fill="none" stroke="#f00" stroke-width="0.5"/>
<path id="D_17" d="M 895.7565693246347 481.71714028533586 L 866.2284396530096 515.7684396530095 L 884.1439215352159 533.6839215352157 L 916.0615967769787 497.2977358411732 Z" fill="none" stroke="#f00" stroke-width="0.5"/>
<path id="D_18" d="M 866.2284396530096 515.7684396530095 L 832.4981376322398 545.7149012117346 L 847.7722241337656 565.6204782874942 L 884.1439215352159 533.6839215352157 Z" fill="none" stroke="#f00" stroke-width="0.5"/>
<path id="D_19" d="M 832.4981376322398 545.7149012117346 L 795.1244479823592 571.0343145339768 L 807.5486974504925 592.5537458586941 L 847.7722241337656 565.6204782874942 Z" fill="none" stroke="#f00" stroke-width="0.5"/>
<path id="D_20" d="M 795.1244479823592 571.0343145339768 L 754.7247752379185 591.258845661117 L 764.1419043191423 613.9938064076257 L 807.5486974504925 592.5537458586941 Z" fill="none" stroke="#f00" stroke-width="0.5"/>
<path id="D_21" d="M 754.7247752379185 591.258845661117 L 711.9831967210929 605.9958365868 L 718.2919187513139 629.5403077344138 L 764.1419043191423 613.9938064076257 Z" fill="none" stroke="#f00" stroke-width="0.5"/>
<path id="D_22" d="M 711.9831967210929 605.9958365868 L 667.6468888483141 614.9646666463269 L 670.8009924921062 638.9224623706215 L 718.2919187513139 629.5403077344138 Z" fill="none" stroke="#f00" stroke-width="0.5"/>
<path id="D_23" d="M 667.6468888483141 614.9646666463269 L 622.5 618.038573426404 L 622.5 642.04 L 670.8009924921062 638.9224623706215 Z" fill="none" stroke="#f00" stroke-width="0.5"/>
<path id="D_24" d="M 622.5 618.038573426404 L 577.3182708196993 615.2293052413045 L 574.19987047417 638.9159074909822 L 622.5 642.04 Z" fill="none" stroke="#f00" stroke-width="0.5"/>
<path id="D_25" d="M 577.3182708196993 615.2293052413045 L 532.8771671834998 606.51696558943 L 526.7132393208229 629.5210575471294 L 574.19987047417 638.9159074909822 Z" fill="none" stroke="#f00" stroke-width="0.5"/>
<path id="D_26" d="M 532.8771671834998 606.51696558943 L 489.9684273863044 591.9995200466185 L 480.87014973105386 613.9647053561605 L 526.7132393208229 629.5210575471294 Z" fill="none" stroke="#f00" stroke-width="0.5"/>
<path id="D_27" d="M 489.9684273863044 591.9995200466185 L 449.3545496417214 571.9367171199335 L 437.4692124690227 592.5227249681348 L 480.87014973105386 613.9647053561605 Z" fill="none" stroke="#f00" stroke-width="0.5"/>
<path id="D_28" d="M 449.3545496417214 571.9367171199335 L 411.73821878138307 546.7101009093087 L 397.2467282636598 565.5957790422934 L 437.4692124690227 592.5227249681348 Z" fill="none" stroke="#f00" stroke-width="0.5"/>
<path id="D_29" d="M 411.73821878138307 546.7101009093087 L 377.75478742742087 516.7852125725792 L 360.8698038092546 533.6701961907454 L 397.2467282636598 565.5957790422934 Z" fill="none" stroke="#f00" stroke-width="0.5"/>
<path id="D_30" d="M 377.75478742742087 516.7852125725792 L 347.9778216902824 482.68827621581863 L 328.9430166403229 497.2941958415707 L 360.8698038092546 533.6701961907454 Z" fill="none" stroke="#f00" stroke-width="0.5"/>
<path id="D_31" d="M 347.9778216902824 482.68827621581863 L 322.9244455947576 445.00002697849806 L 302.0148235523566 457.0722028933316 L 328.9430166403229 497.2941958415707 Z" fill="none" stroke="#f00" stroke-width="0.5"/>
<path id="D_32" d="M 322.9244455947576 445.00002697849806 L 302.94914489190757 404.40229805369177 L 280.5413016441951 413.6839306304247 L 302.0148235523566 457.0722028933316 Z" fill="none" stroke="#f00" stroke-width="0.5"/>
<path id="D_33" d="M 302.94914489190757 404.40229805369177 L 288.5353933350497 361.52554665645107 L 264.95839266374185 367.8429849462761 L 280.5413016441951 413.6839306304247 Z" fill="none" stroke="#f00" stroke-width="0.5"/>
<path id="D_34" d="M 288.5353933350497 361.52554665645107 L 280.0767766282028 317.1208725888239 L 255.59039350477772 320.3445660839046 L 264.95839266374185 367.8429849462761 Z" fill="none" stroke="#f00" stroke-width="0.5"/>
<path id="D_35" d="M 280.0767766282028 317.1208725888239 L 277.5056922237516 272.04 L 252.5 272.04 L 255.59039350477772 320.3445660839046 Z" fill="none" stroke="#f00" stroke-width="0.5"/>
<path id="D_36" d="M 277.5056922237516 272.04 L 280.6842099112296 227.03909752000456 L 255.62344835469966 223.73978566964513 L 252.5 272.04 Z" fill="none" stroke="#f00" stroke-width="0.5"/>
<path id="D_37" d="M 280.6842099112296 227.03909752000456 L 289.7110230517823 182.86946237674562 L 265.01753750713976 176.25286286674907 L 255.62344835469966 223.73978566964513 Z" fill="none" stroke="#f00" stroke-width="0.5"/>
<path id="D_38" d="M 289.7110230517823 182.86946237674562 L 304.46131735525154 140.30406428927265 L 280.57499484087407 130.4100255485997 L 265.01753750713976 176.25286286674907 Z" fill="none" stroke="#f00" stroke-width="0.5"/>
<path id="D_39" d="M 304.46131735525154 140.30406428927265 L 324.6577284222514 100.0806843285371 L 302.02163476396566 87.0117295615242 L 280.57499484087407 130.4100255485997 Z" fill="none" stroke="#f00" stroke-width="0.5"/>
<path id="E_8" d="M 942.9784278316735 87.01169342191534 L 964.3901996694847 130.42444245445404 L 1006.9035829088918 112.81482253432657 L 982.8293077340606 64.00377718282868 Z" fill="none" stroke="#f00" stroke-width="0.5"/>
<path id="E_9" d="M 964.3901996694847 130.42444245445404 L 979.9216342491271 176.26916174553435 L 1024.3666569172094 164.3601538140387 L 1006.9035829088918 112.81482253432657 Z" fill="none" stroke="#f00" stroke-width="0.5"/>
<path id="E_10" d="M 979.9216342491271 176.26916174553435 L 989.3427588673887 223.7442345732575 L 1034.9546217377656 217.73931890675857 L 1024.3666569172094 164.3601538140387 Z" fill="none" stroke="#f00" stroke-width="0.5"/>
<path id="E_11" d="M 989.3427588673887 223.7442345732575 L 992.5 272.03999999999996 L 1038.5 272.03999999999996 L 1034.9546217377656 217.73931890675857 Z" fill="none" stroke="#f00" stroke-width="0.5"/>
<path id="E_12" d="M 992.5 272.03999999999996 L 989.3771478423307 320.3402928211831 L 1034.9876692189769 326.3450318766819 L 1038.5 272.03999999999996 Z" fill="none" stroke="#f00" stroke-width="0.5"/>
<path id="E_13" d="M 989.3771478423307 320.3402928211831 L 979.9841603037179 367.82759206029925 L 1024.4254580367128 379.73560189844625 L 1034.9876692189769 326.3450318766819 Z" fill="none" stroke="#f00" stroke-width="0.5"/>
<path id="E_14" d="M 979.9841603037179 367.82759206029925 L 964.4279331808547 413.6711872777114 L 1006.9362751440141 431.2787190328454 L 1024.4254580367128 379.73560189844625 Z" fill="none" stroke="#f00" stroke-width="0.5"/>
<path id="E_15" d="M 964.4279331808547 413.6711872777114 L 942.983302158277 457.0711207718614 L 982.8300250853924 480.0766369801559 L 1006.9362751440141 431.2787190328454 Z" fill="none" stroke="#f00" stroke-width="0.5"/>
<path id="E_16" d="M 942.983302158277 457.0711207718614 L 916.0615967769787 497.2977358411732 L 952.5587724085674 525.3030036882992 L 982.8300250853924 480.0766369801559 Z" fill="none" stroke="#f00" stroke-width="0.5"/>
<path id="E_17" d="M 916.0615967769787 497.2977358411732 L 884.1439215352159 533.6839215352157 L 916.6707649076543 566.2107649076544 L 952.5587724085674 525.3030036882992 Z" fill="none" stroke="#f00" stroke-width="0.5"/>
<path id="E_18" d="M 884.1439215352159 533.6839215352157 L 847.7722241337656 565.6204782874942 L 875.7760683034091 602.115798546465 L 916.6707649076543 566.2107649076544 Z" fill="none" stroke="#f00" stroke-width="0.5"/>
<path id="E_19" d="M 847.7722241337656 565.6204782874942 L 807.5486974504925 592.5537458586941 L 830.5518861176931 632.3964373663783 L 875.7760683034091 602.115798546465 Z" fill="none" stroke="#f00" stroke-width="0.5"/>
<path id="E_20" d="M 807.5486974504925 592.5537458586941 L 764.1419043191423 613.9938064076257 L 781.7495152475577 656.5023395119948 L 830.5518861176931 632.3964373663783 Z" fill="none" stroke="#f00" stroke-width="0.5"/>
<path id="E_21" d="M 764.1419043191423 613.9938064076257 L 718.2919187513139 629.5403077344138 L 730.2003679040554 673.9832450117957 L 781.7495152475577 656.5023395119948 Z" fill="none" stroke="#f00" stroke-width="0.5"/>
<path id="E_22" d="M 718.2919187513139 629.5403077344138 L 670.8009924921062 638.9224623706215 L 676.8058453229033 684.5338479564584 L 730.2003679040554 673.9832450117957 Z" fill="none" stroke="#f00" stroke-width="0.5"/>
<path id="E_23" d="M 670.8009924921062 638.9224623706215 L 622.5 642.04 L 622.5 688.04 L 676.8058453229033 684.5338479564584 Z" fill="none" stroke="#f00" stroke-width="0.5"/>
<path id="E_24" d="M 622.5 642.04 L 574.19987047417 638.9159074909822 L 568.1950181757747 684.5272890328247 L 622.5 688.04 Z" fill="none" stroke="#f00" stroke-width="0.5"/>
<path id="E_25" d="M 574.19987047417 638.9159074909822 L 526.7132393208229 629.5210575471294 L 514.8047930409473 673.9639841028302 L 568.1950181757747 684.5272890328247 Z" fill="none" stroke="#f00" stroke-width="0.5"/>
<path id="E_26" d="M 526.7132393208229 629.5210575471294 L 480.87014973105386 613.9647053561605 L 463.2625456116411 656.4732220221431 L 514.8047930409473 673.9639841028302 Z" fill="none" stroke="#f00" stroke-width="0.5"/>
<path id="E_27" d="M 480.87014973105386 613.9647053561605 L 437.4692124690227 592.5227249681348 L 414.4660365850548 632.3653943346104 L 463.2625456116411 656.4732220221431 Z" fill="none" stroke="#f00" stroke-width="0.5"/>
<path id="E_28" d="M 437.4692124690227 592.5227249681348 L 397.2467282636598 565.5957790422934 L 369.2429071288571 602.0910692816751 L 414.4660365850548 632.3653943346104 Z" fill="none" stroke="#f00" stroke-width="0.5"/>
<path id="E_29" d="M 397.2467282636598 565.5957790422934 L 360.8698038092546 533.6701961907454 L 328.34300152974964 566.1969984702504 L 369.2429071288571 602.0910692816751 Z" fill="none" stroke="#f00" stroke-width="0.5"/>
<path id="E_30" d="M 360.8698038092546 533.6701961907454 L 328.9430166403229 497.2941958415707 L 292.44591214931876 525.2994091006063 L 328.34300152974964 566.1969984702504 Z" fill="none" stroke="#f00" stroke-width="0.5"/>
<path id="E_31" d="M 328.9430166403229 497.2941958415707 L 302.0148235523566 457.0722028933316 L 262.16821865690076 480.07765095601565 L 292.44591214931876 525.2994091006063 Z" fill="none" stroke="#f00" stroke-width="0.5"/>
<path id="E_32" d="M 302.0148235523566 457.0722028933316 L 280.5413016441951 413.6839306304247 L 238.03081377304085 431.29235124975366 L 262.16821865690076 480.07765095601565 Z" fill="none" stroke="#f00" stroke-width="0.5"/>
<path id="E_33" d="M 280.5413016441951 413.6839306304247 L 264.95839266374185 367.8429849462761 L 220.51457001108042 379.7516713346088 L 238.03081377304085 431.29235124975366 Z" fill="none" stroke="#f00" stroke-width="0.5"/>
<path id="E_34" d="M 264.95839266374185 367.8429849462761 L 255.59039350477772 320.3445660839046 L 209.97871927103114 326.34945691592003 L 220.51457001108042 379.7516713346088 Z" fill="none" stroke="#f00" stroke-width="0.5"/>
<path id="E_35" d="M 255.59039350477772 320.3445660839046 L 252.5 272.04 L 206.50000000000003 272.03999999999996 L 209.97871927103114 326.34945691592003 Z" fill="none" stroke="#f00" stroke-width="0.5"/>
<path id="E_36" d="M 252.5 272.04 L 255.62344835469966 223.73978566964513 L 210.01158750941397 217.7348702697546 L 206.50000000000003 272.03999999999996 Z" fill="none" stroke="#f00" stroke-width="0.5"/>
<path id="E_37" d="M 255.62344835469966 223.73978566964513 L 265.01753750713976 176.25286286674907 L 220.57251048803784 164.3438537694013 L 210.01158750941397 217.7348702697546 Z" fill="none" stroke="#f00" stroke-width="0.5"/>
<path id="E_38" d="M 265.01753750713976 176.25286286674907 L 280.57499484087407 130.4100255485997 L 238.0616177238728 112.8004081644558 L 220.57251048803784 164.3438537694013 Z" fill="none" stroke="#f00" stroke-width="0.5"/>
<path id="E_39" d="M 280.57499484087407 130.4100255485997 L 302.02163476396566 87.0117295615242 L 262.1706149921094 64.00373256876192 L 238.0616177238728 112.8004081644558 Z" fill="none" stroke="#f00" stroke-width="0.5"/>
<path id="F_8" d="M 982.8293077340606 64.00377718282868 L 1006.9035829088918 112.81482253432657 L 1029.7612282777288 103.34687581863972 L 1004.0350340018633 51.760645413751206 Z" fill="none" stroke="#f00" stroke-width="0.5"/>
<path id="F_9" d="M 1006.9035829088918 112.81482253432657 L 1024.3666569172094 164.3601538140387 L 1048.548275506962 157.88070864123713 L 1029.7612282777288 103.34687581863972 Z" fill="none" stroke="#f00" stroke-width="0.5"/>
<path id="F_10" d="M 1024.3666569172094 164.3601538140387 L 1034.9546217377656 217.73931890675857 L 1060.2300849184664 214.41174105134104 L 1048.548275506962 157.88070864123713 Z" fill="none" stroke="#f00" stroke-width="0.5"/>
<path id="F_11" d="M 1034.9546217377656 217.73931890675857 L 1038.5 272.03999999999996 L 1064.4894145654691 272.04 L 1060.2300849184664 214.41174105134104 Z" fill="none" stroke="#f00" stroke-width="0.5"/>
<path id="F_12" d="M 1038.5 272.03999999999996 L 1034.9876692189769 326.3450318766819 L 1061.1425938191219 329.78839302450103 L 1064.4894145654691 272.04 Z" fill="none" stroke="#f00" stroke-width="0.5"/>
<path id="F_13" d="M 1034.9876692189769 326.3450318766819 L 1024.4254580367128 379.73560189844625 L 1050.2833983548528 386.6642161246241 L 1061.1425938191219 329.78839302450103 Z" fill="none" stroke="#f00" stroke-width="0.5"/>
<path id="F_14" d="M 1024.4254580367128 379.73560189844625 L 1006.9362751440141 431.2787190328454 L 1032.0120135770067 441.6654299783111 L 1050.2833983548528 386.6642161246241 Z" fill="none" stroke="#f00" stroke-width="0.5"/>
<path id="F_15" d="M 1006.9362751440141 431.2787190328454 L 982.8300250853924 480.0766369801559 L 1006.6328255191755 493.81919021806755 L 1032.0120135770067 441.6654299783111 Z" fill="none" stroke="#f00" stroke-width="0.5"/>
<path id="F_16" d="M 982.8300250853924 480.0766369801559 L 952.5587724085674 525.3030036882992 L 974.62609905229 542.2358589745747 L 1006.6328255191755 493.81919021806755 Z" fill="none" stroke="#f00" stroke-width="0.5"/>
<path id="F_17" d="M 952.5587724085674 525.3030036882992 L 916.6707649076543 566.2107649076544 L 936.5498607456643 586.0898607456642 L 974.62609905229 542.2358589745747 Z" fill="none" stroke="#f00" stroke-width="0.5"/>
<path id="F_18" d="M 916.6707649076543 566.2107649076544 L 875.7760683034091 602.115798546465 L 893.0504950191548 624.6282697437107 L 936.5498607456643 586.0898607456642 Z" fill="none" stroke="#f00" stroke-width="0.5"/>
<path id="F_19" d="M 875.7760683034091 602.115798546465 L 830.5518861176931 632.3964373663783 L 844.8518850770218 657.1647621121177 L 893.0504950191548 624.6282697437107 Z" fill="none" stroke="#f00" stroke-width="0.5"/>
<path id="F_20" d="M 830.5518861176931 632.3964373663783 L 781.7495152475577 656.5023395119948 L 792.7624775305251 683.089982417438 L 844.8518850770218 657.1647621121177 Z" fill="none" stroke="#f00" stroke-width="0.5"/>
<path id="F_21" d="M 781.7495152475577 656.5023395119948 L 730.2003679040554 673.9832450117957 L 737.6815911672835 701.903550332929 L 792.7624775305251 683.089982417438 Z" fill="none" stroke="#f00" stroke-width="0.5"/>
<path id="F_22" d="M 730.2003679040554 673.9832450117957 L 676.8058453229033 684.5338479564584 L 680.5882312384824 713.2639213306322 L 737.6815911672835 701.903550332929 Z" fill="none" stroke="#f00" stroke-width="0.5"/>
<path id="F_23" d="M 676.8058453229033 684.5338479564584 L 622.5 688.04 L 622.5 717.04 L 680.5882312384824 713.2639213306322 Z" fill="none" stroke="#f00" stroke-width="0.5"/>
<path id="F_24" d="M 622.5 688.04 L 568.1950181757747 684.5272890328247 L 564.4126329547194 713.2573571315661 L 622.5 717.04 Z" fill="none" stroke="#f00" stroke-width="0.5"/>
<path id="F_25" d="M 568.1950181757747 684.5272890328247 L 514.8047930409473 673.9639841028302 L 507.32355953242393 701.8843276599258 L 564.4126329547194 713.2573571315661 Z" fill="none" stroke="#f00" stroke-width="0.5"/>
<path id="F_26" d="M 514.8047930409473 673.9639841028302 L 463.2625456116411 656.4732220221431 L 452.24950333149127 683.0610580578692 L 507.32355953242393 701.8843276599258 Z" fill="none" stroke="#f00" stroke-width="0.5"/>
<path id="F_27" d="M 463.2625456116411 656.4732220221431 L 414.4660365850548 632.3653943346104 L 400.16577076679334 657.1341812935797 L 452.24950333149127 683.0610580578692 Z" fill="none" stroke="#f00" stroke-width="0.5"/>
<path id="F_28" d="M 414.4660365850548 632.3653943346104 L 369.2429071288571 602.0910692816751 L 351.9678721890844 624.6043331319053 L 400.16577076679334 657.1341812935797 Z" fill="none" stroke="#f00" stroke-width="0.5"/>
<path id="F_29" d="M 369.2429071288571 602.0910692816751 L 328.34300152974964 566.1969984702504 L 308.46279801557046 586.0772019844296 L 351.9678721890844 624.6043331319053 Z" fill="none" stroke="#f00" stroke-width="0.5"/>
<path id="F_30" d="M 328.34300152974964 566.1969984702504 L 292.44591214931876 525.2994091006063 L 270.37683726573096 542.2336058585119 L 308.46279801557046 586.0772019844296 Z" fill="none" stroke="#f00" stroke-width="0.5"/>
<path id="F_31" d="M 292.44591214931876 525.2994091006063 L 262.16821865690076 480.07765095601565 L 238.36289241023138 493.82166247267713 L 270.37683726573096 542.2336058585119 Z" fill="none" stroke="#f00" stroke-width="0.5"/>
<path id="F_32" d="M 262.16821865690076 480.07765095601565 L 238.03081377304085 431.29235124975366 L 212.8597832882994 441.71853345544025 L 238.36289241023138 493.82166247267713 Z" fill="none" stroke="#f00" stroke-width="0.5"/>
<path id="F_33" d="M 238.03081377304085 431.29235124975366 L 220.51457001108042 379.7516713346088 L 194.48441795220717 386.7264295576432 L 212.8597832882994 441.71853345544025 Z" fill="none" stroke="#f00" stroke-width="0.5"/>
<path id="F_34" d="M 220.51457001108042 379.7516713346088 L 209.97871927103114 326.34945691592003 L 183.7356934822285 329.8044168052663 L 194.48441795220717 386.7264295576432 Z" fill="none" stroke="#f00" stroke-width="0.5"/>
<path id="F_35" d="M 209.97871927103114 326.34945691592003 L 206.50000000000003 272.03999999999996 L 180.50996764616508 272.0400000000001 L 183.7356934822285 329.8044168052663 Z" fill="none" stroke="#f00" stroke-width="0.5"/>
<path id="F_36" d="M 206.50000000000003 272.03999999999996 L 210.01158750941397 217.7348702697546 L 184.62644543813457 214.3928529144598 L 180.50996764616508 272.0400000000001 Z" fill="none" stroke="#f00" stroke-width="0.5"/>
<path id="F_37" d="M 210.01158750941397 217.7348702697546 L 220.57251048803784 164.3438537694013 L 196.2129931172841 157.81674076189594 L 184.62644543813457 214.3928529144598 Z" fill="none" stroke="#f00" stroke-width="0.5"/>
<path id="F_38" d="M 220.57251048803784 164.3438537694013 L 238.0616177238728 112.8004081644558 L 215.11070886831303 103.29383044769418 L 196.2129931172841 157.81674076189594 Z" fill="none" stroke="#f00" stroke-width="0.5"/>
<path id="F_39" d="M 238.0616177238728 112.8004081644558 L 262.1706149921094 64.00373256876192 L 240.9673863179454 51.76204278604413 L 215.11070886831303 103.29383044769418 Z" fill="none" stroke="#f00" stroke-width="0.5"/>
<path id="G_8" d="M 1004.0350340018633 51.760645413751206 L 1029.7612282777288 103.34687581863972 L 1052.940700465703 93.74562406973081 L 1025.815816420458 39.18550482121506 Z" fill="none" stroke="#f00" stroke-width="0.5"/>
<path id="G_9" d="M 1029.7612282777288 103.34687581863972 L 1048.548275506962 157.88070864123713 L 1072.7395696351218 151.39867091573294 L 1052.940700465703 93.74562406973081 Z" fill="none" stroke="#f00" stroke-width="0.5"/>
<path id="G_10" d="M 1048.548275506962 157.88070864123713 L 1060.2300849184664 214.41174105134104 L 1085.0303114719939 211.14672928483594 L 1072.7395696351218 151.39867091573294 Z" fill="none" stroke="#f00" stroke-width="0.5"/>
<path id="G_11" d="M 1060.2300849184664 214.41174105134104 L 1064.4894145654691 272.04 L 1089.4900367897815 272.04 L 1085.0303114719939 211.14672928483594 Z" fill="none" stroke="#f00" stroke-width="0.5"/>
<path id="G_12" d="M 1064.4894145654691 272.04 L 1061.1425938191219 329.78839302450103 L 1085.9408137673386 333.05314061640536 L 1089.4900367897815 272.04 Z" fill="none" stroke="#f00" stroke-width="0.5"/>
<path id="G_13" d="M 1061.1425938191219 329.78839302450103 L 1050.2833983548528 386.6642161246241 L 1074.4735852625224 393.145957171292 L 1085.9408137673386 333.05314061640536 Z" fill="none" stroke="#f00" stroke-width="0.5"/>
<path id="G_14" d="M 1050.2833983548528 386.6642161246241 L 1032.0120135770067 441.6654299783111 L 1055.1924035093166 451.2670618693707 L 1074.4735852625224 393.145957171292 Z" fill="none" stroke="#f00" stroke-width="0.5"/>
<path id="G_15" d="M 1032.0120135770067 441.6654299783111 L 1006.6328255191755 493.81919021806755 L 1028.4154095745273 506.3953709860705 L 1055.1924035093166 451.2670618693707 Z" fill="none" stroke="#f00" stroke-width="0.5"/>
<path id="G_16" d="M 1006.6328255191755 493.81919021806755 L 974.62609905229 542.2358589745747 L 994.6211639775969 557.5786119181543 L 1028.4154095745273 506.3953709860705 Z" fill="none" stroke="#f00" stroke-width="0.5"/>
<path id="G_17" d="M 974.62609905229 542.2358589745747 L 936.5498607456643 586.0898607456642 L 954.410204555873 603.950204555873 L 994.6211639775969 557.5786119181543 Z" fill="none" stroke="#f00" stroke-width="0.5"/>
<path id="G_18" d="M 936.5498607456643 586.0898607456642 L 893.0504950191548 624.6282697437107 L 908.4716608617387 644.7255243485582 L 954.410204555873 603.950204555873 Z" fill="none" stroke="#f00" stroke-width="0.5"/>
<path id="G_19" d="M 893.0504950191548 624.6282697437107 L 844.8518850770218 657.1647621121177 L 857.568108441938 679.1899070605472 L 908.4716608617387 644.7255243485582 Z" fill="none" stroke="#f00" stroke-width="0.5"/>
<path id="G_20" d="M 844.8518850770218 657.1647621121177 L 792.7624775305251 683.089982417438 L 802.543824374891 706.7042426273813 L 857.568108441938 679.1899070605472 Z" fill="none" stroke="#f00" stroke-width="0.5"/>
<path id="G_21" d="M 792.7624775305251 683.089982417438 L 737.6815911672835 701.903550332929 L 744.3349651978916 726.7342802569179 L 802.543824374891 706.7042426273813 Z" fill="none" stroke="#f00" stroke-width="0.5"/>
<path id="G_22" d="M 737.6815911672835 701.903550332929 L 680.5882312384824 713.2639213306322 L 683.9634611377296 738.9013377192315 L 744.3349651978916 726.7342802569179 Z" fill="none" stroke="#f00" stroke-width="0.5"/>
<path id="G_23" d="M 680.5882312384824 713.2639213306322 L 622.5 717.04 L 622.5 743.0389523010587 L 683.9634611377296 738.9013377192315 Z" fill="none" stroke="#f00" stroke-width="0.5"/>
<path id="G_24" d="M 622.5 717.04 L 564.4126329547194 713.2573571315661 L 561.001734865979 739.1657003172028 L 622.5 743.0389523010587 Z" fill="none" stroke="#f00" stroke-width="0.5"/>
<path id="G_25" d="M 564.4126329547194 713.2573571315661 L 507.32355953242393 701.8843276599258 L 500.52566718593346 727.2544072814117 L 561.001734865979 739.1657003172028 Z" fill="none" stroke="#f00" stroke-width="0.5"/>
<path id="G_26" d="M 507.32355953242393 701.8843276599258 L 452.24950333149127 683.0610580578692 L 442.1501236318667 707.443117500258 L 500.52566718593346 727.2544072814117 Z" fill="none" stroke="#f00" stroke-width="0.5"/>
<path id="G_27" d="M 452.24950333149127 683.0610580578692 L 400.16577076679334 657.1341812935797 L 386.91221883348334 680.0900066228254 L 442.1501236318667 707.443117500258 Z" fill="none" stroke="#f00" stroke-width="0.5"/>
<path id="G_28" d="M 400.16577076679334 657.1341812935797 L 351.9678721890844 624.6043331319053 L 335.7664423745639 645.7184475424945 L 386.91221883348334 680.0900066228254 Z" fill="none" stroke="#f00" stroke-width="0.5"/>
<path id="G_29" d="M 351.9678721890844 624.6043331319053 L 308.46279801557046 586.0772019844296 L 289.5747107978681 604.965289202132 L 335.7664423745639 645.7184475424945 Z" fill="none" stroke="#f00" stroke-width="0.5"/>
<path id="G_30" d="M 308.46279801557046 586.0772019844296 L 270.37683726573096 542.2336058585119 L 249.114171809159 558.5490228997074 L 289.5747107978681 604.965289202132 Z" fill="none" stroke="#f00" stroke-width="0.5"/>
<path id="G_31" d="M 270.37683726573096 542.2336058585119 L 238.36289241023138 493.82166247267713 L 215.08467321191227 507.26134859308183 L 249.114171809159 558.5490228997074 Z" fill="none" stroke="#f00" stroke-width="0.5"/>
<path id="G_32" d="M 238.36289241023138 493.82166247267713 L 212.8597832882994 441.71853345544025 L 187.9740209668324 452.02655371898527 L 215.08467321191227 507.26134859308183 Z" fill="none" stroke="#f00" stroke-width="0.5"/>
<path id="G_33" d="M 212.8597832882994 441.71853345544025 L 194.48441795220717 386.7264295576432 L 168.42722490891373 393.70843339061554 L 187.9740209668324 452.02655371898527 Z" fill="none" stroke="#f00" stroke-width="0.5"/>
<path id="G_34" d="M 194.48441795220717 386.7264295576432 L 183.7356934822285 329.8044168052663 L 156.96954571989852 333.3282470089704 L 168.42722490891373 393.70843339061554 Z" fill="none" stroke="#f00" stroke-width="0.5"/>
<path id="G_35" d="M 183.7356934822285 329.8044168052663 L 180.50996764616508 272.0400000000001 L 153.50941129995624 272.04000000000013 L 156.96954571989852 333.3282470089704 Z" fill="none" stroke="#f00" stroke-width="0.5"/>
<path id="G_36" d="M 180.50996764616508 272.0400000000001 L 184.62644543813457 214.3928529144598 L 157.86223882227856 210.86927826753725 L 153.50941129995624 272.04000000000013 Z" fill="none" stroke="#f00" stroke-width="0.5"/>
<path id="G_37" d="M 184.62644543813457 214.3928529144598 L 196.2129931172841 157.81674076189594 L 170.15760028218403 150.83521929325522 L 157.86223882227856 210.86927826753725 Z" fill="none" stroke="#f00" stroke-width="0.5"/>
<path id="G_38" d="M 196.2129931172841 157.81674076189594 L 215.11070886831303 103.29383044769418 L 190.2254041742738 92.9859997396363 L 170.15760028218403 150.83521929325522 Z" fill="none" stroke="#f00" stroke-width="0.5"/>
<path id="G_39" d="M 215.11070886831303 103.29383044769418 L 240.9673863179454 51.76204278604413 L 217.68740969905897 38.32134201840186 L 190.2254041742738 92.9859997396363 Z" fill="none" stroke="#f00" stroke-width="0.5"/>
<path id="H_8" d="M 1025.815816420458 39.18550482121506 L 1052.940700465703 93.74562406973081 L 1076.275876479898 84.079877684288 L 1047.898947283985 26.435803272607956 Z" fill="none" stroke="#f00" stroke-width="0.5"/>
<path id="H_9" d="M 1052.940700465703 93.74562406973081 L 1072.7395696351218 151.39867091573294 L 1096.857963430583 144.93616677550335 L 1076.275876479898 84.079877684288 Z" fill="none" stroke="#f00" stroke-width="0.5"/>
<path id="H_10" d="M 1072.7395696351218 151.39867091573294 L 1085.0303114719939 211.14672928483594 L 1109.328672386729 207.94778938313107 L 1096.857963430583 144.93616677550335 Z" fill="none" stroke="#f00" stroke-width="0.5"/>
<path id="H_11" d="M 1085.0303114719939 211.14672928483594 L 1089.4900367897815 272.04 L 1113.5 272.03999999999996 L 1109.328672386729 207.94778938313107 Z" fill="none" stroke="#f00" stroke-width="0.5"/>
<path id="H_12" d="M 1089.4900367897815 272.04 L 1085.9408137673386 333.05314061640536 L 1109.3620943176584 336.13661069755005 L 1113.5 272.03999999999996 Z" fill="none" stroke="#f00" stroke-width="0.5"/>
<path id="H_13" d="M 1085.9408137673386 333.05314061640536 L 1074.4735852625224 393.145957171292 L 1096.919394543066 399.16029364147664 L 1109.3620943176584 336.13661069755005 Z" fill="none" stroke="#f00" stroke-width="0.5"/>
<path id="H_14" d="M 1074.4735852625224 393.145957171292 L 1055.1924035093166 451.2670618693707 L 1076.3158636883113 460.01668555975834 L 1096.919394543066 399.16029364147664 Z" fill="none" stroke="#f00" stroke-width="0.5"/>
<path id="H_15" d="M 1055.1924035093166 451.2670618693707 L 1028.4154095745273 506.3953709860705 L 1047.913079693519 517.6523560778409 L 1076.3158636883113 460.01668555975834 Z" fill="none" stroke="#f00" stroke-width="0.5"/>
<path id="H_16" d="M 1028.4154095745273 506.3953709860705 L 994.6211639775969 557.5786119181543 L 1012.2181546581267 571.081257774539 L 1047.913079693519 517.6523560778409 Z" fill="none" stroke="#f00" stroke-width="0.5"/>
<path id="H_17" d="M 994.6211639775969 557.5786119181543 L 954.410204555873 603.950204555873 L 969.883406289081 619.4234062890808 L 1012.2181546581267 571.081257774539 Z" fill="none" stroke="#f00" stroke-width="0.5"/>
<path id="H_18" d="M 954.410204555873 603.950204555873 L 908.4716608617387 644.7255243485582 L 921.6355792830117 661.8810768411729 L 969.883406289081 619.4234062890808 Z" fill="none" stroke="#f00" stroke-width="0.5"/>
<path id="H_19" d="M 908.4716608617387 644.7255243485582 L 857.568108441938 679.1899070605472 L 868.2721341703511 697.729823467683 L 921.6355792830117 661.8810768411729 Z" fill="none" stroke="#f00" stroke-width="0.5"/>
<path id="H_20" d="M 857.568108441938 679.1899070605472 L 802.543824374891 706.7042426273813 L 810.6703625896814 726.3234414006718 L 868.2721341703511 697.729823467683 Z" fill="none" stroke="#f00" stroke-width="0.5"/>
<path id="H_21" d="M 802.543824374891 706.7042426273813 L 744.3349651978916 726.7342802569179 L 749.7982087503716 747.1233827688964 L 810.6703625896814 726.3234414006718 Z" fill="none" stroke="#f00" stroke-width="0.5"/>
<path id="H_22" d="M 744.3349651978916 726.7342802569179 L 683.9634611377296 738.9013377192315 L 686.7082268633163 759.749903267824 L 749.7982087503716 747.1233827688964 Z" fill="none" stroke="#f00" stroke-width="0.5"/>
<path id="H_23" d="M 683.9634611377296 738.9013377192315 L 622.5 743.0389523010587 L 622.5 764.0390033735733 L 686.7082268633163 759.749903267824 Z" fill="none" stroke="#f00" stroke-width="0.5"/>
<path id="H_24" d="M 622.5 743.0389523010587 L 561.001734865979 739.1657003172028 L 558.2571363262906 760.01299596282 L 622.5 764.0390033735733 Z" fill="none" stroke="#f00" stroke-width="0.5"/>
<path id="H_25" d="M 561.001734865979 739.1657003172028 L 500.52566718593346 727.2544072814117 L 495.062920100033 747.6416569548911 L 558.2571363262906 760.01299596282 Z" fill="none" stroke="#f00" stroke-width="0.5"/>
<path id="H_26" d="M 500.52566718593346 727.2544072814117 L 442.1501236318667 707.443117500258 L 434.0244128718625 727.0603186209814 L 495.062920100033 747.6416569548911 Z" fill="none" stroke="#f00" stroke-width="0.5"/>
<path id="H_27" d="M 442.1501236318667 707.443117500258 L 386.91221883348334 680.0900066228254 L 376.209404372939 698.627825052471 L 434.0244128718625 727.0603186209814 Z" fill="none" stroke="#f00" stroke-width="0.5"/>
<path id="H_28" d="M 386.91221883348334 680.0900066228254 L 335.7664423745639 645.7184475424945 L 322.6044530006045 662.8714860517046 L 376.209404372939 698.627825052471 Z" fill="none" stroke="#f00" stroke-width="0.5"/>
<path id="H_29" d="M 335.7664423745639 645.7184475424945 L 289.5747107978681 604.965289202132 L 274.10490778362225 620.4350922163778 L 322.6044530006045 662.8714860517046 Z" fill="none" stroke="#f00" stroke-width="0.5"/>
<path id="H_30" d="M 289.5747107978681 604.965289202132 L 249.114171809159 558.5490228997074 L 231.52317697937875 572.0470679779962 L 274.10490778362225 620.4350922163778 Z" fill="none" stroke="#f00" stroke-width="0.5"/>
<path id="H_31" d="M 249.114171809159 558.5490228997074 L 215.08467321191227 507.26134859308183 L 195.59684198359977 518.51265319867 L 231.52317697937875 572.0470679779962 Z" fill="none" stroke="#f00" stroke-width="0.5"/>
<path id="H_32" d="M 215.08467321191227 507.26134859308183 L 187.9740209668324 452.02655371898527 L 166.94879157422173 460.73548888541 L 195.59684198359977 518.51265319867 Z" fill="none" stroke="#f00" stroke-width="0.5"/>
<path id="H_33" d="M 187.9740209668324 452.02655371898527 L 168.42722490891373 393.70843339061554 L 146.15517643930124 399.67621079183505 L 166.94879157422173 460.73548888541 Z" fill="none" stroke="#f00" stroke-width="0.5"/>
<path id="H_34" d="M 168.42722490891373 393.70843339061554 L 156.96954571989852 333.3282470089704 L 133.63793436958952 336.399911915977 L 146.15517643930124 399.67621079183505 Z" fill="none" stroke="#f00" stroke-width="0.5"/>
<path id="H_35" d="M 156.96954571989852 333.3282470089704 L 153.50941129995624 272.04000000000013 L 129.5 272.04 L 133.63793436958952 336.399911915977 Z" fill="none" stroke="#f00" stroke-width="0.5"/>
<path id="H_36" d="M 153.50941129995624 272.04000000000013 L 157.86223882227856 210.86927826753725 L 133.67094711455564 207.68443429435027 L 129.5 272.04 Z" fill="none" stroke="#f00" stroke-width="0.5"/>
<path id="H_37" d="M 157.86223882227856 210.86927826753725 L 170.15760028218403 150.83521929325522 L 146.21398543976258 144.41954703234657 L 133.67094711455564 207.68443429435027 Z" fill="none" stroke="#f00" stroke-width="0.5"/>
<path id="H_38" d="M 170.15760028218403 150.83521929325522 L 190.2254041742738 92.9859997396363 L 166.98166690553487 83.3581285226877 L 146.21398543976258 144.41954703234657 Z" fill="none" stroke="#f00" stroke-width="0.5"/>
<path id="H_39" d="M 190.2254041742738 92.9859997396363 L 217.68740969905897 38.32134201840186 L 195.60194067111334 25.570290529938266 L 166.98166690553487 83.3581285226877 Z" fill="none" stroke="#f00" stroke-width="0.5"/>
<path id="I_8" d="M 1047.898947283985 26.435803272607956 L 1076.275876479898 84.079877684288 L 1097.074747498108 75.4647032264966 L 1067.2701119819942 15.251856119695674 Z" fill="none" stroke="#f00" stroke-width="0.5"/>
<path id="I_9" d="M 1076.275876479898 84.079877684288 L 1096.857963430583 144.93616677550335 L 1118.7387690220128 139.0732225875373 L 1097.074747498108 75.4647032264966 Z" fill="none" stroke="#f00" stroke-width="0.5"/>
<path id="I_10" d="M 1096.857963430583 144.93616677550335 L 1109.328672386729 207.94778938313107 L 1131.9628998723817 204.96793680368359 L 1118.7387690220128 139.0732225875373 Z" fill="none" stroke="#f00" stroke-width="0.5"/>
<path id="I_11" d="M 1109.328672386729 207.94778938313107 L 1113.5 272.03999999999996 L 1136.4990226592522 272.04 L 1131.9628998723817 204.96793680368359 Z" fill="none" stroke="#f00" stroke-width="0.5"/>
<path id="I_12" d="M 1113.5 272.03999999999996 L 1109.3620943176584 336.13661069755005 L 1132.287017428763 339.15473408212597 L 1136.4990226592522 272.04 Z" fill="none" stroke="#f00" stroke-width="0.5"/>
<path id="I_13" d="M 1109.3620943176584 336.13661069755005 L 1096.919394543066 399.16029364147664 L 1119.356722266384 405.1723574852522 L 1132.287017428763 339.15473408212597 Z" fill="none" stroke="#f00" stroke-width="0.5"/>
<path id="I_14" d="M 1096.919394543066 399.16029364147664 L 1076.3158636883113 460.01668555975834 L 1097.8504741874278 468.9366132889145 L 1119.356722266384 405.1723574852522 Z" fill="none" stroke="#f00" stroke-width="0.5"/>
<path id="I_15" d="M 1076.3158636883113 460.01668555975834 L 1047.913079693519 517.6523560778409 L 1068.1435504449532 529.3324238120142 L 1097.8504741874278 468.9366132889145 Z" fill="none" stroke="#f00" stroke-width="0.5"/>
<path id="I_16" d="M 1047.913079693519 517.6523560778409 L 1012.2181546581267 571.081257774539 L 1030.7905735877853 585.3323760513174 L 1068.1435504449532 529.3324238120142 Z" fill="none" stroke="#f00" stroke-width="0.5"/>
<path id="I_17" d="M 1012.2181546581267 571.081257774539 L 969.883406289081 619.4234062890808 L 986.4642167936508 636.0042167936508 L 1030.7905735877853 585.3323760513174 Z" fill="none" stroke="#f00" stroke-width="0.5"/>
<path id="I_18" d="M 969.883406289081 619.4234062890808 L 921.6355792830117 661.8810768411729 L 935.9185747227002 680.4950388983502 L 986.4642167936508 636.0042167936508 Z" fill="none" stroke="#f00" stroke-width="0.5"/>
<path id="I_19" d="M 921.6355792830117 661.8810768411729 L 868.2721341703511 697.729823467683 L 879.9919598877552 718.0291570660792 L 935.9185747227002 680.4950388983502 Z" fill="none" stroke="#f00" stroke-width="0.5"/>
<path id="I_20" d="M 868.2721341703511 697.729823467683 L 810.6703625896814 726.3234414006718 L 819.6155065484766 747.9189292633747 L 879.9919598877552 718.0291570660792 Z" fill="none" stroke="#f00" stroke-width="0.5"/>
<path id="I_21" d="M 810.6703625896814 726.3234414006718 L 749.7982087503716 747.1233827688964 L 755.8209155105444 769.6004303969498 L 819.6155065484766 747.9189292633747 Z" fill="none" stroke="#f00" stroke-width="0.5"/>
<path id="I_22" d="M 749.7982087503716 747.1233827688964 L 686.7082268633163 759.749903267824 L 689.7282846296857 782.6895194673915 L 755.8209155105444 769.6004303969498 Z" fill="none" stroke="#f00" stroke-width="0.5"/>
<path id="I_23" d="M 686.7082268633163 759.749903267824 L 622.5 764.0390033735733 L 622.5 787.04 L 689.7282846296857 782.6895194673915 Z" fill="none" stroke="#f00" stroke-width="0.5"/>
<path id="I_24" d="M 622.5 764.0390033735733 L 558.2571363262906 760.01299596282 L 555.2725822796672 782.6829346371103 L 622.5 787.04 Z" fill="none" stroke="#f00" stroke-width="0.5"/>
<path id="I_25" d="M 558.2571363262906 760.01299596282 L 495.062920100033 747.6416569548911 L 489.18429118035897 769.5809987619587 L 555.2725822796672 782.6829346371103 Z" fill="none" stroke="#f00" stroke-width="0.5"/>
<path id="I_26" d="M 495.062920100033 747.6416569548911 L 434.0244128718625 727.0603186209814 L 425.3967856998716 747.8892531507004 L 489.18429118035897 769.5809987619587 Z" fill="none" stroke="#f00" stroke-width="0.5"/>
<path id="I_27" d="M 434.0244128718625 727.0603186209814 L 376.209404372939 698.627825052471 L 365.0267144671965 717.9968121345047 L 425.3967856998716 747.8892531507004 Z" fill="none" stroke="#f00" stroke-width="0.5"/>
<path id="I_28" d="M 376.209404372939 698.627825052471 L 322.6044530006045 662.8714860517046 L 309.10227017730267 680.4678732957722 L 365.0267144671965 717.9968121345047 Z" fill="none" stroke="#f00" stroke-width="0.5"/>
<path id="I_29" d="M 322.6044530006045 662.8714860517046 L 274.10490778362225 620.4350922163778 L 258.55341575259706 635.9865842474029 L 309.10227017730267 680.4678732957722 Z" fill="none" stroke="#f00" stroke-width="0.5"/>
<path id="I_30" d="M 274.10490778362225 620.4350922163778 L 231.52317697937875 572.0470679779962 L 214.22106899064718 585.3234423866763 L 258.55341575259706 635.9865842474029 Z" fill="none" stroke="#f00" stroke-width="0.5"/>
<path id="I_31" d="M 231.52317697937875 572.0470679779962 L 195.59684198359977 518.51265319867 L 176.8658917068409 529.3269723831343 L 214.22106899064718 585.3234423866763 Z" fill="none" stroke="#f00" stroke-width="0.5"/>
<path id="I_32" d="M 195.59684198359977 518.51265319867 L 166.94879157422173 460.73548888541 L 147.0894421111074 468.96150077293885 L 176.8658917068409 529.3269723831343 Z" fill="none" stroke="#f00" stroke-width="0.5"/>
<path id="I_33" d="M 166.94879157422173 460.73548888541 L 146.15517643930124 399.67621079183505 L 125.52602380580484 405.2037755805187 L 147.0894421111074 468.96150077293885 Z" fill="none" stroke="#f00" stroke-width="0.5"/>
<path id="I_34" d="M 146.15517643930124 399.67621079183505 L 133.63793436958952 336.399911915977 L 112.64782323109344 339.163312471997 L 125.52602380580484 405.2037755805187 Z" fill="none" stroke="#f00" stroke-width="0.5"/>
<path id="I_35" d="M 133.63793436958952 336.399911915977 L 129.5 272.04 L 108.50095187719837 272.0400000000001 L 112.64782323109344 339.163312471997 Z" fill="none" stroke="#f00" stroke-width="0.5"/>
<path id="I_36" d="M 129.5 272.04 L 133.67094711455564 207.68443429435027 L 112.96862243581741 204.95892154452923 L 108.50095187719837 272.0400000000001 Z" fill="none" stroke="#f00" stroke-width="0.5"/>
<path id="I_37" d="M 133.67094711455564 207.68443429435027 L 146.21398543976258 144.41954703234657 L 126.14113350957771 139.04104256786403 L 112.96862243581741 204.95892154452923 Z" fill="none" stroke="#f00" stroke-width="0.5"/>
<path id="I_38" d="M 146.21398543976258 144.41954703234657 L 166.98166690553487 83.3581285226877 L 147.85858190897554 75.43708736269934 L 126.14113350957771 139.04104256786403 Z" fill="none" stroke="#f00" stroke-width="0.5"/>
<path id="I_39" d="M 166.98166690553487 83.3581285226877 L 195.60194067111334 25.570290529938266 L 177.73039332329853 15.252147857842203 L 147.85858190897554 75.43708736269934 Z" fill="none" stroke="#f00" stroke-width="0.5"/>

  </g>
</svg>
