<?xml version="1.0" standalone="no"?>
<!DOCTYPE svg PUBLIC "-//W3C//DTD SVG 20010904//EN"
 "http://www.w3.org/TR/2001/REC-SVG-20010904/DTD/svg10.dtd">
<svg version="1.0" xmlns="http://www.w3.org/2000/svg"
 width="810.000000pt" height="843.000000pt" viewBox="0 0 810.000000 843.000000"
 preserveAspectRatio="xMidYMid meet">
<metadata>
Created by potrace 1.10, written by Peter Selinger 2001-2011
</metadata>
<g transform="translate(0.000000,843.000000) scale(0.100000,-0.100000)"
fill="#000000" stroke="none">
<path d="M6150 8410 c0 -12 7 -20 16 -20 9 0 27 -10 39 -22 13 -13 34 -31 49
-41 15 -10 26 -27 26 -40 -1 -20 -2 -21 -14 -4 -18 24 -26 21 -26 -8 0 -21 5
-25 30 -25 23 0 30 -5 30 -19 0 -10 11 -26 24 -34 13 -9 31 -35 39 -59 8 -24
20 -59 26 -78 27 -77 51 -188 51 -235 -1 -96 -17 -185 -42 -223 -13 -20 -30
-56 -37 -80 -6 -24 -21 -52 -32 -63 -10 -10 -19 -28 -19 -39 0 -27 -26 -90
-37 -90 -5 0 -14 5 -21 12 -9 9 -12 -1 -12 -45 0 -31 -4 -57 -10 -57 -13 0
-67 -116 -84 -182 -20 -76 -26 -88 -45 -88 -11 0 -16 -9 -17 -33 0 -18 -19
-72 -42 -121 -23 -48 -42 -90 -42 -93 0 -4 -6 -14 -14 -22 -7 -9 -21 -41 -30
-71 -10 -30 -23 -62 -30 -70 -17 -20 -46 -85 -46 -102 0 -25 -30 -58 -46 -51
-14 5 -15 1 -10 -25 7 -29 -20 -102 -43 -116 -5 -3 -12 -21 -15 -40 -4 -19
-12 -36 -20 -39 -7 -3 -25 -39 -40 -81 -35 -96 -38 -182 -7 -222 13 -17 19
-34 15 -49 -4 -16 2 -31 20 -50 16 -17 26 -40 26 -58 0 -26 2 -28 16 -16 14
11 18 10 30 -6 8 -10 14 -36 14 -57 0 -31 4 -38 20 -38 24 0 54 -53 45 -81 -6
-17 -4 -20 12 -15 15 5 23 -2 36 -29 9 -20 17 -46 17 -60 0 -14 7 -26 19 -30
19 -6 56 -79 52 -102 -1 -7 7 -13 17 -13 27 0 50 -54 32 -75 -15 -18 -14 -19
25 -32 22 -7 34 -20 45 -49 24 -65 72 -144 87 -144 9 0 13 -14 13 -46 0 -40 2
-45 19 -39 25 8 39 -12 43 -60 2 -22 6 -38 9 -35 12 9 48 -31 54 -61 4 -16 17
-37 29 -46 12 -10 28 -33 34 -52 7 -19 23 -49 37 -67 14 -18 24 -43 23 -56 -2
-12 2 -23 8 -23 22 0 48 -39 53 -79 5 -31 12 -44 32 -53 19 -9 30 -25 38 -57
6 -25 16 -48 21 -51 6 -4 17 -22 25 -41 8 -19 21 -37 30 -40 8 -3 15 -18 15
-33 0 -30 16 -59 26 -48 17 17 44 -27 44 -72 0 -34 3 -42 12 -33 14 14 38 -2
38 -27 0 -10 16 -36 35 -58 29 -34 35 -49 35 -87 0 -25 5 -46 10 -46 6 0 10 6
10 13 1 22 50 -43 50 -67 0 -12 14 -35 30 -51 17 -16 30 -35 30 -42 0 -15 26
-58 52 -87 10 -11 18 -28 18 -39 0 -22 44 -98 78 -135 15 -15 22 -32 19 -44
-8 -30 3 -49 24 -43 23 8 39 -21 39 -69 0 -29 4 -36 20 -36 13 0 27 -13 39
-38 11 -20 31 -52 45 -71 19 -26 23 -38 16 -57 -10 -25 -4 -54 11 -54 5 0 9 5
9 10 0 6 5 10 10 10 6 0 10 -5 10 -11 0 -6 7 -18 16 -26 11 -11 14 -27 11 -50
-5 -30 -3 -33 18 -33 27 0 40 -18 50 -73 5 -27 12 -37 26 -37 12 0 24 -11 30
-27 29 -72 85 -173 97 -173 8 0 12 -10 10 -27 -2 -20 3 -30 21 -39 32 -16 41
-32 41 -73 0 -25 4 -32 15 -27 10 4 22 -8 36 -36 12 -23 37 -66 57 -95 27 -41
33 -56 24 -65 -18 -18 -15 -26 11 -30 13 -2 29 -16 39 -37 9 -18 26 -43 37
-55 51 -54 57 -120 16 -182 -8 -12 -26 -53 -40 -89 -13 -36 -31 -76 -40 -88
-8 -12 -20 -38 -25 -59 -6 -20 -31 -80 -55 -133 -35 -75 -48 -95 -58 -87 -9 8
-16 6 -25 -9 -19 -31 -55 -23 -98 21 -22 22 -45 40 -52 40 -7 0 -17 11 -22 25
-12 33 -79 104 -108 116 -13 5 -29 24 -37 43 -8 18 -21 36 -30 39 -8 4 -15 13
-15 22 0 8 -16 21 -35 29 -36 15 -78 57 -105 105 -41 74 -56 90 -71 86 -11 -4
-19 2 -23 18 -3 13 -64 82 -136 154 -71 72 -130 135 -130 141 0 12 -24 22 -51
22 -10 0 -19 3 -20 8 -3 32 -13 50 -55 95 -26 29 -52 57 -58 62 -6 6 -16 19
-22 30 -6 10 -19 23 -30 29 -10 6 -24 18 -31 26 -6 8 -37 42 -67 75 -31 32
-58 67 -61 77 -4 9 -15 20 -25 23 -11 3 -27 19 -37 36 -12 21 -25 29 -45 29
-28 0 -55 31 -43 50 3 5 -16 32 -44 59 -27 27 -52 58 -56 70 -5 16 -12 20 -26
16 -15 -5 -19 -1 -19 19 0 16 -11 32 -32 47 -18 13 -34 26 -36 30 -5 12 -74
80 -142 143 -36 32 -64 64 -62 71 1 7 -11 18 -27 23 -16 6 -35 21 -42 34 -11
21 -74 99 -126 156 -13 14 -23 29 -23 33 0 5 -11 11 -25 15 -13 3 -27 14 -30
24 -7 21 -91 110 -105 110 -5 0 -15 12 -22 27 -7 15 -24 30 -38 33 -18 4 -25
13 -26 30 -1 46 -4 50 -33 50 -22 0 -34 8 -50 33 -49 75 -61 91 -75 99 -9 5
-16 18 -16 29 0 22 -32 39 -38 21 -2 -7 -11 -12 -19 -12 -12 0 -14 7 -10 30 6
27 3 31 -28 44 -19 8 -35 22 -35 30 0 9 -5 16 -10 16 -6 0 -13 8 -17 18 -10
29 -35 52 -57 52 -12 0 -43 16 -70 35 -27 19 -57 35 -65 35 -9 0 -43 -24 -75
-54 -45 -42 -56 -59 -52 -74 5 -15 1 -22 -13 -27 -12 -4 -26 -24 -36 -55 -9
-28 -20 -52 -25 -55 -4 -3 -11 -22 -14 -42 -4 -21 -12 -53 -18 -71 -8 -29 -14
-33 -34 -29 -26 5 -42 -7 -24 -18 24 -15 -6 -129 -40 -150 -5 -3 -10 -14 -10
-23 0 -9 -18 -53 -40 -96 -22 -43 -40 -85 -40 -92 0 -7 -6 -17 -13 -21 -6 -4
-21 -34 -32 -67 -10 -32 -28 -70 -39 -84 -12 -14 -21 -31 -21 -37 -2 -26 -19
-72 -33 -87 -14 -17 -16 -17 -28 0 -12 15 -13 10 -14 -35 0 -40 -6 -62 -29
-95 -28 -42 -62 -130 -76 -196 -4 -18 -18 -40 -31 -48 -13 -9 -22 -20 -19 -24
8 -12 -24 -101 -46 -129 -11 -13 -19 -31 -19 -41 0 -9 -11 -39 -26 -66 -14
-27 -34 -71 -45 -97 -10 -26 -27 -60 -36 -74 -10 -15 -24 -47 -33 -72 -9 -29
-23 -50 -38 -56 -17 -8 -21 -16 -17 -33 3 -13 -3 -42 -16 -70 -19 -39 -23 -43
-26 -25 -8 44 -22 22 -20 -31 2 -42 -3 -59 -19 -78 -27 -31 -74 -125 -74 -149
0 -10 -9 -47 -21 -82 l-21 -63 21 -62 c12 -34 21 -70 21 -81 0 -23 29 -79 66
-128 17 -22 24 -45 24 -75 1 -38 2 -41 14 -25 7 9 16 17 19 17 15 0 37 -61 31
-85 -5 -21 -3 -25 15 -25 16 0 27 -13 45 -54 13 -29 28 -56 34 -60 6 -3 16
-23 23 -44 6 -20 19 -46 28 -57 18 -21 61 -99 61 -109 0 -3 -7 -6 -15 -6 -8 0
-15 -4 -15 -10 0 -5 11 -10 25 -10 27 0 61 -50 51 -76 -3 -9 4 -19 19 -26 24
-11 39 -38 51 -93 4 -16 12 -37 19 -45 6 -8 18 -30 25 -48 7 -18 19 -36 27
-41 11 -6 16 -30 18 -92 2 -72 0 -86 -16 -97 -10 -7 -25 -34 -33 -60 -8 -26
-21 -60 -30 -77 -9 -16 -16 -38 -16 -47 0 -10 -4 -18 -9 -18 -20 0 -126 72
-133 90 -4 11 -13 20 -21 20 -7 0 -24 12 -38 26 -13 14 -40 34 -60 44 -19 10
-52 39 -73 64 -22 27 -46 46 -58 46 -16 0 -19 5 -14 24 5 19 1 25 -17 30 -24
6 -74 44 -122 94 -17 17 -38 32 -47 32 -19 0 -41 24 -30 34 10 11 -28 36 -55
36 -18 0 -22 5 -20 22 1 18 -4 24 -22 26 -14 2 -50 25 -80 51 -31 27 -64 51
-73 54 -10 4 -15 12 -12 20 6 17 -21 47 -42 47 -18 0 -54 31 -54 46 0 7 -14
17 -32 23 -18 6 -41 20 -53 30 -14 13 -42 20 -95 24 -41 4 -113 13 -160 22
-47 8 -112 15 -145 15 -33 0 -96 4 -140 10 -44 5 -139 14 -210 20 -72 6 -146
15 -165 20 -20 5 -85 12 -145 15 -61 2 -144 9 -185 14 -41 5 -86 7 -100 5 -14
-3 -34 1 -45 10 -19 15 -19 17 -2 27 25 15 21 27 -11 31 -24 3 -27 6 -24 37 3
41 18 62 38 54 17 -6 19 8 3 24 -8 8 -7 23 6 57 10 25 20 46 24 47 3 0 16 2
29 3 32 4 45 20 46 57 1 31 3 32 101 65 96 33 127 40 280 65 110 18 225 51
225 65 0 19 52 26 126 18 49 -5 65 -4 60 5 -4 6 -16 11 -27 11 -46 0 -2 20 89
40 53 12 113 28 132 35 19 8 73 23 120 35 47 12 108 32 137 45 50 22 53 26
100 127 27 56 57 129 67 161 9 31 21 57 27 57 5 0 9 -4 9 -10 0 -5 5 -10 11
-10 8 0 9 15 5 45 -6 37 -4 47 13 62 12 10 21 22 21 27 0 5 16 49 35 98 20 49
33 94 29 99 -3 5 10 42 29 82 19 40 38 88 42 107 4 19 18 55 31 80 12 25 26
59 30 75 7 33 63 173 99 250 13 28 27 64 31 80 3 17 14 44 24 60 9 17 23 53
29 80 7 28 19 61 27 73 15 23 16 23 29 5 13 -16 14 -10 15 50 0 47 4 67 13 67
13 0 60 121 81 210 8 30 25 80 40 110 14 30 26 61 26 67 0 7 12 38 27 69 15
32 37 85 49 118 12 34 34 93 49 131 51 130 57 150 62 208 6 64 -11 97 -51 97
-39 0 -65 12 -59 26 6 15 -3 16 -197 15 -58 0 -224 0 -369 -1 -239 0 -263 -1
-257 -16 6 -15 1 -16 -36 -10 -24 4 -50 7 -58 7 -269 -17 -1727 -31 -1800 -17
-35 6 -225 -7 -288 -20 -19 -4 -38 -2 -45 5 -10 8 -29 7 -71 -1 -52 -11 -59
-11 -67 5 -12 21 -44 23 -35 2 4 -12 -5 -15 -47 -16 -29 0 -171 -6 -317 -13
-146 -7 -273 -11 -282 -8 -20 5 -23 23 -7 39 7 7 2 15 -15 27 -33 21 -33 53
-1 114 14 26 25 52 25 58 0 7 17 47 39 90 21 44 42 90 46 104 4 14 17 41 29
60 11 19 26 48 31 65 8 22 18 31 43 36 41 8 44 11 47 50 1 17 8 35 16 39 23
13 140 47 224 65 44 10 100 24 125 32 25 8 79 21 120 29 41 7 109 23 150 34
41 12 102 26 135 31 33 6 93 21 135 34 41 14 112 27 157 30 45 3 100 12 124
20 23 8 55 15 71 15 16 0 45 7 65 15 19 8 48 15 64 15 19 0 29 5 29 14 0 18
75 31 126 21 30 -5 36 -4 31 8 -8 20 27 34 136 53 50 8 106 22 122 29 27 12
203 54 440 106 44 9 107 25 140 34 33 9 88 21 123 26 35 5 75 15 90 23 15 7
70 21 122 30 52 9 130 28 172 42 42 14 103 27 135 29 60 3 157 20 174 31 6 3
34 10 62 14 82 14 111 22 122 36 11 14 105 35 118 27 5 -3 27 4 50 15 46 22
138 44 205 48 23 1 53 9 65 17 13 8 66 24 118 35 103 22 217 49 265 63 17 5
39 9 50 9 11 0 54 12 95 26 73 25 129 65 129 91 0 8 15 48 34 91 19 42 55 131
81 197 25 66 54 138 65 160 10 22 21 55 24 74 4 19 12 42 20 50 7 9 26 52 41
95 19 52 35 80 47 84 13 3 18 14 18 41 0 22 13 64 33 102 43 87 53 114 66 177
6 29 20 71 32 94 12 23 28 63 36 90 8 27 25 70 39 95 13 26 27 64 30 84 4 21
17 47 29 59 13 12 21 28 19 34 -3 7 4 34 15 59 16 37 25 46 42 44 17 -1 24 5
31 31 6 21 18 36 34 42 14 6 30 23 35 39 7 19 19 31 32 33 15 2 23 12 27 33 5
28 9 30 53 33 44 3 47 5 41 27 -6 25 17 45 54 45 10 0 29 11 41 24 25 26 74
50 139 66 50 13 54 25 11 34 -53 10 -96 7 -109 -9 -7 -8 -25 -15 -39 -15 -15
0 -36 -7 -47 -15 -10 -8 -24 -15 -31 -15 -6 0 -45 -24 -87 -52 -42 -29 -85
-57 -94 -63 -27 -15 -122 -107 -122 -118 0 -5 -13 -26 -30 -47 -16 -21 -30
-47 -30 -58 0 -11 -7 -25 -15 -32 -8 -7 -15 -25 -15 -40 0 -15 -7 -33 -15 -40
-8 -7 -15 -23 -15 -35 0 -12 -7 -28 -15 -35 -8 -7 -15 -23 -15 -35 0 -13 -8
-38 -17 -57 -9 -18 -22 -45 -30 -60 -7 -14 -13 -33 -13 -41 0 -9 -8 -30 -17
-49 -9 -18 -22 -45 -30 -60 -7 -14 -13 -33 -13 -42 0 -9 -4 -24 -9 -34 -34
-64 -51 -106 -51 -126 0 -13 -7 -29 -15 -36 -8 -7 -15 -25 -15 -40 0 -15 -7
-33 -15 -40 -8 -7 -15 -22 -15 -34 0 -11 -7 -30 -15 -40 -8 -11 -15 -30 -15
-42 0 -12 -7 -27 -15 -34 -8 -7 -15 -22 -15 -34 0 -11 -7 -30 -15 -40 -8 -11
-15 -30 -15 -42 0 -12 -7 -27 -15 -34 -8 -7 -15 -22 -15 -34 0 -11 -7 -30 -15
-40 -8 -11 -15 -30 -15 -42 0 -12 -7 -27 -15 -34 -8 -7 -15 -22 -15 -34 0 -11
-7 -30 -15 -40 -8 -11 -15 -30 -15 -42 0 -12 -7 -27 -15 -34 -8 -7 -15 -22
-15 -34 0 -11 -7 -30 -15 -40 -8 -11 -15 -28 -15 -37 0 -10 -6 -30 -14 -46 -8
-15 -22 -47 -32 -70 -16 -41 -19 -43 -58 -43 -23 -1 -52 -7 -66 -15 -14 -8
-43 -15 -65 -15 -22 0 -51 -7 -65 -15 -14 -8 -40 -14 -58 -15 -18 0 -49 -7
-69 -15 -19 -8 -48 -15 -63 -15 -15 0 -44 -7 -63 -15 -20 -8 -51 -15 -70 -15
-18 0 -42 -7 -53 -15 -10 -8 -35 -15 -55 -15 -20 0 -53 -7 -72 -15 -20 -8 -51
-15 -70 -15 -18 0 -42 -7 -53 -15 -10 -8 -36 -15 -57 -15 -21 0 -54 -7 -74
-15 -19 -8 -50 -15 -67 -15 -17 -1 -42 -7 -56 -15 -14 -8 -44 -14 -67 -15 -23
0 -44 -4 -47 -9 -4 -5 -25 -12 -49 -16 -23 -4 -61 -13 -85 -21 -23 -8 -57 -14
-75 -14 -18 0 -42 -7 -53 -15 -10 -8 -37 -15 -59 -15 -22 0 -51 -7 -65 -15
-14 -8 -40 -14 -58 -15 -18 0 -49 -7 -69 -15 -19 -8 -50 -15 -67 -15 -17 -1
-42 -7 -56 -15 -14 -8 -43 -15 -65 -15 -22 0 -51 -7 -65 -15 -14 -8 -43 -15
-65 -15 -22 0 -49 -7 -59 -15 -11 -8 -41 -15 -67 -15 -29 0 -51 -6 -59 -15 -7
-9 -29 -15 -52 -15 -21 0 -55 -7 -75 -15 -19 -8 -48 -15 -63 -15 -15 0 -44 -7
-63 -15 -20 -8 -51 -15 -70 -15 -18 0 -42 -7 -53 -15 -10 -8 -35 -15 -55 -15
-20 0 -53 -7 -72 -15 -20 -8 -51 -15 -69 -15 -18 0 -42 -7 -52 -15 -11 -8 -38
-15 -60 -15 -23 -1 -52 -7 -66 -15 -14 -8 -40 -14 -58 -15 -18 0 -49 -7 -69
-15 -19 -8 -50 -15 -68 -15 -18 0 -46 -7 -61 -15 -16 -8 -40 -15 -54 -15 -14
0 -43 -7 -65 -15 -22 -8 -56 -14 -76 -15 -19 0 -44 -7 -55 -15 -10 -8 -37 -15
-59 -15 -22 0 -49 -6 -60 -14 -11 -7 -47 -16 -79 -19 -32 -3 -64 -11 -69 -16
-6 -6 -27 -11 -47 -11 -19 -1 -46 -7 -60 -15 -14 -8 -43 -15 -65 -15 -22 0
-51 -7 -65 -15 -14 -8 -39 -14 -56 -15 -18 0 -45 -7 -60 -15 -16 -8 -47 -15
-70 -15 -22 0 -49 -7 -60 -15 -10 -8 -37 -15 -59 -15 -22 0 -51 -7 -65 -15
-14 -8 -45 -15 -70 -15 -48 -1 -80 -18 -80 -43 0 -8 -6 -28 -14 -44 -8 -15
-22 -46 -32 -68 -9 -22 -23 -52 -31 -67 -7 -14 -13 -35 -13 -46 0 -11 -7 -25
-15 -32 -8 -7 -15 -20 -15 -29 0 -9 -7 -25 -15 -35 -8 -11 -15 -27 -15 -37 0
-9 -7 -22 -15 -29 -8 -7 -15 -25 -15 -40 0 -15 -7 -33 -15 -40 -8 -7 -15 -18
-15 -25 0 -8 -8 -28 -17 -47 -9 -18 -22 -45 -30 -60 -7 -14 -13 -35 -13 -46 0
-11 -7 -25 -15 -32 -8 -7 -15 -21 -15 -31 0 -10 -4 -21 -10 -24 -5 -3 -10 -13
-10 -22 0 -15 46 -16 513 -10 281 4 625 11 762 17 138 5 538 12 890 14 352 2
717 7 810 10 216 9 1136 22 1153 17 18 -5 15 -35 -8 -61 -11 -13 -20 -30 -20
-39 0 -9 -7 -25 -15 -35 -8 -11 -15 -28 -15 -37 0 -10 -8 -32 -17 -51 -9 -18
-22 -45 -30 -60 -7 -14 -13 -33 -13 -41 0 -9 -8 -30 -17 -49 -9 -18 -22 -45
-30 -60 -7 -14 -13 -35 -13 -46 0 -11 -7 -25 -15 -32 -8 -7 -15 -23 -15 -35 0
-22 -5 -35 -44 -113 -9 -19 -16 -44 -16 -57 0 -12 -7 -28 -15 -35 -8 -7 -15
-23 -15 -35 0 -12 -7 -28 -15 -35 -8 -7 -15 -25 -15 -40 0 -15 -7 -33 -15 -40
-8 -7 -15 -23 -15 -35 0 -12 -7 -28 -15 -35 -8 -7 -15 -25 -15 -40 0 -15 -7
-33 -15 -40 -8 -7 -15 -22 -15 -34 0 -11 -7 -30 -15 -40 -8 -11 -15 -30 -15
-42 0 -12 -7 -27 -15 -34 -8 -7 -15 -22 -15 -34 0 -11 -7 -30 -15 -40 -8 -11
-15 -29 -15 -40 0 -12 -7 -30 -15 -40 -8 -11 -15 -27 -15 -37 0 -9 -7 -22 -15
-29 -8 -7 -15 -23 -15 -35 0 -13 -8 -38 -17 -57 -9 -18 -22 -45 -30 -60 -7
-14 -13 -34 -13 -45 0 -10 -7 -27 -15 -37 -8 -11 -15 -30 -15 -42 0 -12 -7
-27 -15 -34 -8 -7 -15 -22 -15 -34 0 -12 -7 -31 -15 -42 -8 -10 -15 -32 -15
-47 0 -15 -7 -30 -15 -33 -8 -4 -15 -18 -15 -33 0 -14 -7 -35 -15 -45 -8 -11
-15 -30 -15 -43 0 -13 -7 -26 -15 -29 -8 -4 -15 -18 -15 -33 0 -14 -7 -35 -15
-45 -8 -11 -15 -30 -15 -42 0 -12 -7 -27 -15 -34 -8 -7 -15 -22 -15 -34 0 -11
-7 -30 -15 -40 -8 -11 -15 -30 -15 -42 0 -12 -7 -27 -15 -34 -8 -7 -15 -22
-15 -34 0 -11 -7 -30 -15 -40 -8 -11 -15 -29 -15 -40 0 -12 -7 -30 -15 -40 -8
-11 -15 -29 -15 -41 0 -25 -18 -45 -40 -45 -8 0 -28 -7 -44 -15 -15 -8 -42
-15 -60 -15 -17 -1 -42 -7 -56 -15 -14 -8 -38 -15 -55 -15 -16 0 -41 -7 -55
-15 -14 -8 -38 -15 -55 -15 -16 0 -41 -7 -55 -15 -14 -8 -38 -15 -55 -15 -16
0 -41 -7 -55 -15 -14 -8 -39 -14 -56 -15 -18 0 -45 -7 -60 -15 -16 -8 -39 -15
-52 -15 -12 0 -39 -7 -59 -15 -19 -8 -50 -15 -68 -15 -18 0 -38 -6 -44 -14 -7
-8 -28 -16 -49 -19 -71 -11 -147 -29 -174 -43 -14 -8 -39 -14 -55 -14 -15 -1
-39 -7 -53 -15 -14 -8 -42 -14 -63 -15 -60 0 -116 -40 -117 -85 0 -11 -7 -29
-15 -39 -8 -11 -15 -27 -15 -37 0 -9 -7 -22 -15 -29 -8 -7 -15 -25 -15 -40 0
-15 -7 -33 -15 -40 -8 -7 -15 -18 -15 -25 0 -12 -17 -51 -42 -95 -4 -8 -13
-26 -18 -40 -6 -14 -15 -33 -20 -42 -20 -35 -12 -38 108 -38 64 0 148 -7 187
-15 38 -8 108 -15 155 -15 47 0 126 -7 175 -15 50 -8 124 -15 167 -15 42 0
112 -7 155 -15 43 -8 116 -15 163 -15 47 -1 114 -7 150 -15 36 -8 103 -14 149
-15 l84 0 56 -51 c31 -28 75 -69 98 -90 23 -22 45 -39 49 -39 4 0 30 -21 58
-47 93 -86 131 -119 148 -129 9 -5 49 -39 90 -75 40 -37 96 -85 123 -106 28
-22 63 -52 78 -67 15 -14 30 -26 32 -26 1 0 18 -15 37 -32 19 -18 65 -58 102
-88 37 -30 85 -71 105 -90 66 -61 160 -135 173 -135 7 0 14 15 16 33 2 18 10
36 18 39 8 3 14 16 14 29 0 24 35 100 51 110 5 3 9 18 9 33 0 16 7 34 15 41 8
7 15 19 15 28 0 19 38 100 51 108 14 9 10 60 -6 74 -8 7 -15 21 -15 31 0 10
-6 22 -13 26 -13 9 -34 39 -43 63 -3 8 -10 22 -15 30 -5 8 -13 25 -18 37 -6
11 -15 24 -20 28 -6 3 -11 14 -11 24 0 10 -7 24 -15 31 -8 7 -15 21 -15 31 0
10 -6 22 -12 26 -13 8 -34 38 -43 61 -13 32 -16 39 -34 67 -29 44 -61 110 -61
123 0 6 -6 15 -13 19 -12 8 -33 38 -42 61 -13 32 -16 39 -35 67 -10 17 -31 56
-47 87 -15 32 -31 58 -35 58 -4 0 -8 6 -8 14 0 7 -7 19 -15 26 -8 7 -15 20
-15 30 0 10 -7 23 -15 30 -8 7 -15 21 -15 32 0 10 -6 21 -14 24 -8 3 -24 27
-35 54 -12 27 -26 52 -31 55 -16 10 -12 81 5 95 8 7 15 20 15 30 0 10 7 23 15
30 8 7 15 20 15 30 0 10 7 23 15 30 8 7 15 19 15 28 0 19 38 100 51 108 5 3 9
15 9 27 0 12 7 31 15 41 8 11 15 27 15 37 0 9 7 22 15 29 8 7 15 20 15 30 0
10 7 23 15 30 8 7 15 20 15 29 0 9 20 56 45 104 25 48 45 96 45 106 0 10 7 24
15 31 8 7 15 20 15 30 0 10 7 23 15 30 8 7 15 21 15 32 0 11 7 26 15 34 8 9
15 24 15 33 0 10 7 24 15 31 8 7 15 20 15 30 0 10 7 23 15 30 8 7 15 26 15 42
0 16 6 31 15 34 8 4 15 16 15 29 0 12 7 28 15 35 8 7 15 20 15 30 0 10 7 23
15 30 8 7 15 20 15 30 0 9 11 37 25 61 14 24 27 51 30 59 3 8 13 28 21 43 7
16 14 37 14 47 0 9 7 23 15 30 8 7 15 20 15 30 0 10 7 23 15 30 8 7 15 20 15
30 0 10 7 23 15 30 8 7 15 19 15 28 0 19 38 100 51 108 5 3 9 18 9 33 0 16 7
34 15 41 8 7 15 20 15 30 0 10 7 23 15 30 8 7 15 18 15 25 0 8 6 26 14 42 58
115 76 155 76 167 0 7 7 19 15 26 8 7 15 23 15 35 0 12 7 28 15 35 8 7 15 20
15 30 0 10 7 23 15 30 8 7 15 23 15 35 0 12 7 28 15 35 8 7 15 21 15 31 0 10
4 20 9 23 5 4 17 31 27 61 9 31 21 58 27 62 6 3 19 -7 31 -23 12 -16 50 -60
86 -97 36 -38 72 -79 80 -92 8 -12 52 -60 97 -106 147 -150 264 -272 336 -354
39 -44 117 -127 173 -185 139 -143 253 -265 304 -325 24 -27 68 -75 99 -107
89 -89 304 -318 350 -371 23 -27 90 -99 150 -160 59 -62 146 -153 192 -203
115 -124 323 -345 448 -476 58 -60 114 -121 125 -137 12 -15 65 -72 119 -127
54 -54 128 -134 164 -176 67 -79 89 -92 99 -60 3 9 10 25 15 34 5 10 9 28 9
42 0 13 7 29 15 36 8 7 15 21 15 31 0 11 14 45 30 76 17 31 30 64 30 73 0 10
7 23 15 30 8 7 15 23 15 35 0 12 7 28 15 35 8 7 15 25 15 40 0 15 7 33 15 40
8 7 15 18 15 25 0 8 7 27 15 44 8 17 22 45 30 62 8 17 15 38 15 47 0 8 7 23
16 33 23 26 24 131 1 156 -9 11 -17 24 -17 29 0 6 -20 41 -45 78 -25 38 -45
74 -45 80 0 7 -5 17 -11 23 -11 11 -26 36 -49 78 -6 11 -19 34 -30 50 -11 17
-24 40 -29 52 -5 11 -15 24 -20 28 -6 3 -11 15 -11 26 0 11 -6 22 -14 25 -8 3
-17 13 -20 22 -3 9 -15 31 -26 47 -11 17 -25 42 -31 58 -6 15 -15 27 -20 27
-5 0 -9 6 -9 14 0 7 -7 19 -15 26 -8 7 -15 19 -15 26 0 8 -20 43 -45 80 -25
36 -45 71 -45 78 0 8 -7 19 -15 26 -8 7 -15 16 -15 21 0 4 -12 27 -27 51 -48
74 -53 82 -62 105 -6 11 -15 24 -20 28 -6 3 -11 15 -11 25 0 10 -6 23 -13 27
-8 4 -17 15 -20 23 -4 8 -16 29 -27 45 -11 17 -25 42 -31 58 -6 15 -15 27 -20
27 -5 0 -9 6 -9 14 0 7 -7 19 -15 26 -8 7 -15 20 -15 30 0 10 -7 20 -15 24 -8
3 -15 13 -15 22 0 9 -13 33 -30 54 -16 21 -30 44 -30 51 0 7 -7 20 -15 29 -13
15 -48 72 -75 125 -6 11 -19 34 -30 50 -11 17 -25 41 -30 55 -6 13 -14 27 -18
30 -9 7 -30 40 -41 67 -6 11 -15 24 -20 28 -6 3 -11 15 -11 26 0 11 -7 22 -15
25 -8 4 -15 12 -15 19 0 7 -7 18 -15 25 -8 7 -15 21 -15 31 0 11 -4 19 -10 19
-5 0 -17 15 -25 33 -8 17 -28 55 -45 82 -16 28 -33 57 -37 65 -3 8 -17 29 -29
45 -12 17 -28 41 -34 55 -16 36 -36 70 -49 83 -6 6 -11 19 -11 29 0 9 -6 21
-12 25 -13 8 -30 32 -48 68 -6 11 -19 34 -30 50 -11 17 -24 40 -29 52 -5 11
-15 24 -20 28 -6 3 -11 14 -11 25 0 10 -7 20 -15 24 -8 3 -15 12 -15 19 0 8
-13 33 -30 55 -16 23 -30 46 -30 51 0 6 -12 29 -27 53 -48 74 -53 82 -63 106
-5 12 -14 22 -20 22 -5 0 -10 7 -10 14 0 8 -12 34 -27 58 -48 74 -53 82 -62
105 -6 11 -15 24 -20 28 -6 3 -11 15 -11 26 0 11 -6 22 -14 25 -8 3 -17 13
-20 22 -3 9 -15 31 -25 47 -21 32 -33 53 -74 128 -14 26 -44 75 -66 108 -23
34 -41 67 -41 75 0 7 -5 16 -11 19 -5 4 -15 17 -20 28 -5 12 -18 36 -29 52
-11 17 -24 39 -30 50 -13 24 -27 46 -63 102 -28 44 -33 63 -18 63 5 0 14 14
20 30 5 17 15 30 20 30 6 0 11 12 11 26 0 14 7 32 15 40 8 9 15 24 15 33 0 10
7 24 15 31 8 7 15 20 15 29 0 9 7 25 15 35 8 11 15 30 15 42 0 12 7 27 15 34
8 7 15 20 15 30 0 10 7 23 15 30 8 7 15 18 15 25 0 8 7 26 15 42 7 15 24 49
35 75 12 27 26 50 31 54 5 3 9 15 9 27 0 12 7 31 15 41 8 11 15 27 15 37 0 9
7 22 15 29 8 7 15 20 15 30 0 10 7 23 15 30 8 7 15 23 15 35 0 12 7 28 15 35
8 7 15 18 15 25 0 7 14 37 30 68 17 31 30 65 30 76 0 10 7 24 15 31 8 7 15 20
15 30 0 10 7 20 15 24 8 3 15 14 15 25 0 17 15 52 42 101 4 8 11 22 14 30 3 8
12 27 20 42 8 14 14 33 14 41 0 8 7 20 15 27 8 7 15 23 15 35 0 12 7 28 15 35
8 7 15 18 15 25 0 8 6 26 14 42 8 15 27 53 42 83 26 52 28 64 32 208 3 127 1
157 -12 177 -9 13 -16 44 -16 67 0 24 -7 52 -15 62 -8 11 -15 27 -15 36 0 9
-13 43 -30 75 -16 32 -30 63 -30 69 0 6 -23 35 -50 64 -39 40 -56 52 -80 52
-23 0 -30 4 -30 20 0 16 -7 20 -35 20 -28 0 -35 -4 -35 -20z"/>
<path d="M4023 6033 c9 -2 25 -2 35 0 9 3 1 5 -18 5 -19 0 -27 -2 -17 -5z"/>
<path d="M255 4560 c3 -5 15 -10 25 -10 10 0 22 5 25 10 4 6 -7 10 -25 10 -18
0 -29 -4 -25 -10z"/>
</g>
</svg>
