<?xml version="1.0" encoding="UTF-8"?>
<svg xmlns="http://www.w3.org/2000/svg" viewBox="0 0 1160.17 861.54">
  <defs>
    <style>
      .inner-block {
        fill: none;
        stroke: #0066cc;
        stroke-width: 0.8;
        opacity: 0.8;
      }
      .outer-block {
        fill: none;
        stroke: #cc6600;
        stroke-width: 0.8;
        opacity: 0.8;
      }
      .inner-exception {
        fill: none;
        stroke: #cc0066;
        stroke-width: 1.0;
        opacity: 0.9;
      }
      .inner-block:hover, .outer-block:hover, .inner-exception:hover {
        fill: rgba(255, 0, 0, 0.1);
        stroke-width: 1.5;
        opacity: 1;
      }
    </style>
  </defs>
  <g id="BRC_Arc_Blocks">
    <path id="Esplanade_2:00" class="inner-block" d="M 816.8,158.6 A 225.0,225.0 0 0,1 839.8,213.8 L 879.3,202.1 A 266.3,266.3 0 0,0 852.6,137.9 Z" />
    <path id="Esplanade_2:30" class="inner-block" d="M 839.8,213.8 A 225.0,225.0 0 0,1 847.5,272.0 L 888.5,272.0 A 266.1,266.1 0 0,0 879.3,202.1 Z" />
    <path id="Esplanade_3:00" class="inner-block" d="M 847.5,272.0 A 225.0,225.0 0 0,1 839.9,330.3 L 879.6,340.9 A 266.0,266.0 0 0,0 888.5,272.0 Z" />
    <path id="Esplanade_3:30" class="inner-block" d="M 839.9,330.3 A 225.1,225.1 0 0,1 817.7,384.0 L 853.4,404.7 A 266.1,266.1 0 0,0 879.6,340.9 Z" />
    <path id="Esplanade_4:00" class="inner-block" d="M 817.7,384.0 A 225.0,225.0 0 0,1 781.8,431.4 L 811.0,460.5 A 266.3,266.3 0 0,0 853.4,404.7 Z" />
    <path id="Esplanade_4:30" class="inner-block" d="M 781.8,431.4 A 225.3,225.3 0 0,1 735.4,467.5 L 756.0,503.3 A 266.6,266.6 0 0,0 811.0,460.5 Z" />
    <path id="Esplanade_5:00" class="inner-block" d="M 735.4,467.5 A 225.7,225.7 0 0,1 680.9,489.9 L 691.7,530.5 A 267.0,267.0 0 0,0 756.0,503.3 Z" />
    <path id="Esplanade_5:30" class="inner-block" d="M 680.9,489.9 L 670.4,497.5 L 669.7,496.6 L 668.9,495.8 L 668.1,495.0 L 667.3,494.2 L 666.5,493.4 L 665.7,492.6 L 664.8,491.9 L 664.0,491.2 L 663.1,490.4 L 662.2,489.7 L 661.3,489.0 L 660.4,488.4 L 659.5,487.7 L 658.6,487.0 L 657.7,486.4 L 656.7,485.8 L 655.8,485.2 L 654.8,484.6 L 653.8,484.1 L 652.8,483.5 L 651.8,483.0 L 650.8,482.5 L 649.8,482.0 L 648.8,481.5 L 647.7,481.1 L 646.7,480.6 L 645.7,480.2 L 644.6,479.8 L 643.5,479.5 L 642.5,479.1 L 641.4,478.8 L 640.3,478.4 L 639.2,478.1 L 638.1,477.8 L 637.0,477.6 L 635.9,477.3 L 634.8,477.1 L 633.7,476.9 L 632.6,476.7 L 631.5,476.5 L 630.4,476.4 L 629.3,476.3 L 628.1,476.1 L 627.0,476.1 L 625.9,476.0 L 624.8,475.9 L 623.6,475.9 L 622.5,475.9 L 622.2,475.9 L 622.5,539.9 L 629.5,539.8 L 636.5,539.6 L 643.5,539.1 L 650.5,538.5 L 657.5,537.6 L 664.4,536.6 L 671.3,535.5 L 678.2,534.1 L 685.0,532.5 L 691.7,530.5 Z" />
    <path id="Esplanade_6:00" class="inner-block" d="M 622.2,475.9 L 621.4,475.9 L 620.2,475.9 L 619.1,476.0 L 618.0,476.1 L 616.9,476.1 L 615.7,476.3 L 614.6,476.4 L 613.5,476.5 L 612.4,476.7 L 611.3,476.9 L 610.2,477.1 L 609.1,477.3 L 608.0,477.6 L 606.9,477.8 L 605.8,478.1 L 604.7,478.4 L 603.6,478.8 L 602.5,479.1 L 601.5,479.5 L 600.4,479.8 L 599.3,480.2 L 598.3,480.6 L 597.3,481.1 L 596.2,481.5 L 595.2,482.0 L 594.2,482.5 L 593.2,483.0 L 592.2,483.5 L 591.2,484.1 L 590.2,484.6 L 589.2,485.2 L 588.3,485.8 L 587.3,486.4 L 586.4,487.0 L 585.5,487.7 L 584.6,488.4 L 583.7,489.0 L 582.8,489.7 L 581.9,490.4 L 581.0,491.2 L 580.2,491.9 L 579.3,492.6 L 578.5,493.4 L 577.7,494.2 L 576.9,495.0 L 576.1,495.8 L 575.3,496.6 L 574.6,497.5 L 573.8,498.3 L 564.0,489.9 L 563.9,489.9 L 552.8,531.4 L 559.6,533.2 L 566.5,534.7 L 573.4,536.1 L 580.4,537.3 L 587.3,538.3 L 594.3,539.1 L 601.4,539.8 L 608.4,540.2 L 615.4,540.5 L 622.5,539.9 Z" />
    <path id="Esplanade_6:30" class="inner-block" d="M 563.9,489.9 A 225.6,225.6 0 0,1 508.8,467.1 L 487.2,504.6 A 268.6,268.6 0 0,0 552.8,531.4 Z" />
    <path id="Esplanade_7:00" class="inner-block" d="M 508.8,467.1 A 225.7,225.7 0 0,1 462.4,430.6 L 431.2,461.8 A 269.0,269.0 0 0,0 487.2,504.6 Z" />
    <path id="Esplanade_7:30" class="inner-block" d="M 462.4,430.6 A 225.3,225.3 0 0,1 427.1,383.6 L 388.3,406.0 A 269.4,269.4 0 0,0 431.2,461.8 Z" />
    <path id="Esplanade_8:00" class="inner-block" d="M 427.1,383.6 A 225.0,225.0 0 0,1 404.8,329.2 L 361.4,340.9 A 269.8,269.8 0 0,0 388.3,406.0 Z" />
    <path id="Esplanade_8:30" class="inner-block" d="M 404.8,329.2 A 225.1,225.1 0 0,1 397.5,272.0 L 352.5,272.0 A 270.1,270.1 0 0,0 361.4,340.9 Z" />
    <path id="Esplanade_9:00" class="inner-block" d="M 397.5,272.0 A 225.0,225.0 0 0,1 405.1,213.8 L 361.7,202.2 A 270.0,270.0 0 0,0 352.5,272.0 Z" />
    <path id="Esplanade_9:30" class="inner-block" d="M 405.1,213.8 A 225.1,225.1 0 0,1 427.9,159.0 L 388.9,137.2 A 270.0,270.0 0 0,0 361.7,202.2 Z" />
    <path id="A_2:00" class="inner-block" d="M 852.6,137.9 A 266.3,266.3 0 0,1 879.3,202.1 L 906.3,194.9 A 294.0,294.0 0 0,0 876.6,124.1 Z" />
    <path id="A_2:30" class="inner-block" d="M 879.3,202.1 A 266.1,266.1 0 0,1 888.5,272.0 L 916.5,272.0 A 294.1,294.1 0 0,0 906.3,194.9 Z" />
    <path id="A_3:00" class="inner-block" d="M 888.5,272.0 A 266.0,266.0 0 0,1 879.6,340.9 L 906.6,348.2 A 294.0,294.0 0 0,0 916.5,272.0 Z" />
    <path id="A_3:30" class="inner-block" d="M 879.6,340.9 A 266.1,266.1 0 0,1 853.4,404.7 L 877.5,418.5 A 294.1,294.1 0 0,0 906.6,348.2 Z" />
    <path id="A_4:00" class="inner-block" d="M 853.4,404.7 A 266.3,266.3 0 0,1 811.0,460.5 L 830.4,479.9 A 294.0,294.0 0 0,0 877.5,418.5 Z" />
    <path id="A_4:30" class="inner-block" d="M 811.0,460.5 A 266.6,266.6 0 0,1 756.0,503.3 L 769.5,526.7 A 294.0,294.0 0 0,0 830.4,479.9 Z" />
    <path id="A_5:00" class="inner-block" d="M 756.0,503.3 A 267.0,267.0 0 0,1 691.7,530.5 L 698.6,556.1 A 294.0,294.0 0 0,0 769.5,526.7 Z" />
    <path id="A_5:30" class="inner-block" d="M 691.7,530.5 A 267.5,267.5 0 0,1 622.5,539.9 L 622.5,566.0 A 294.1,294.1 0 0,0 698.6,556.1 Z" />
    <path id="A_6:00" class="inner-block" d="M 622.5,539.9 A 267.9,267.9 0 0,1 552.8,531.4 L 546.2,556.0 A 294.0,294.0 0 0,0 622.5,566.0 Z" />
    <path id="A_6:30" class="inner-block" d="M 552.8,531.4 A 268.6,268.6 0 0,1 487.2,504.6 L 474.7,526.2 A 294.1,294.1 0 0,0 546.2,556.0 Z" />
    <path id="A_7:00" class="inner-block" d="M 487.2,504.6 A 269.0,269.0 0 0,1 431.2,461.8 L 413.9,479.2 A 294.0,294.0 0 0,0 474.7,526.2 Z" />
    <path id="A_7:30" class="inner-block" d="M 431.2,461.8 A 269.4,269.4 0 0,1 388.3,406.0 L 367.3,418.1 A 294.0,294.0 0 0,0 413.9,479.2 Z" />
    <path id="A_8:00" class="inner-block" d="M 388.3,406.0 A 269.8,269.8 0 0,1 361.4,340.9 L 338.1,347.1 A 294.1,294.1 0 0,0 367.3,418.1 Z" />
    <path id="A_8:30" class="inner-block" d="M 361.4,340.9 A 270.1,270.1 0 0,1 352.5,272.0 L 328.5,272.0 A 294.1,294.1 0 0,0 338.1,347.1 Z" />
    <path id="A_9:00" class="inner-block" d="M 352.5,272.0 A 270.0,270.0 0 0,1 361.7,202.2 L 338.4,195.9 A 294.0,294.0 0 0,0 328.5,272.0 Z" />
    <path id="A_9:30" class="inner-block" d="M 361.7,202.2 A 270.0,270.0 0 0,1 388.9,137.2 L 368.2,124.5 A 294.1,294.1 0 0,0 338.4,195.9 Z" />
    <path id="B_2:00" class="inner-block" d="M 876.6,124.1 A 294.0,294.0 0 0,1 906.3,194.9 L 932.1,188.0 A 320.5,320.5 0 0,0 899.5,110.8 Z" />
    <path id="B_2:30" class="inner-block" d="M 906.3,194.9 A 294.1,294.1 0 0,1 916.5,272.0 L 943.5,272.0 A 320.8,320.8 0 0,0 932.1,188.0 Z" />
    <path id="B_3:00" class="inner-block" d="M 916.5,272.0 A 294.0,294.0 0 0,1 906.6,348.2 L 932.9,355.2 A 321.0,321.0 0 0,0 943.5,272.0 Z" />
    <path id="B_3:30" class="inner-block" d="M 906.6,348.2 A 294.1,294.1 0 0,1 877.5,418.5 L 901.3,432.3 A 321.3,321.3 0 0,0 932.9,355.2 Z" />
    <path id="B_4:00" class="inner-block" d="M 877.5,418.5 A 294.0,294.0 0 0,1 830.4,479.9 L 850.0,499.5 A 321.6,321.6 0 0,0 901.3,432.3 Z" />
    <path id="B_4:30" class="inner-block" d="M 830.4,479.9 A 294.0,294.0 0 0,1 769.5,526.7 L 783.5,550.8 A 321.7,321.7 0 0,0 850.0,499.5 Z" />
    <path id="B_5:00" class="inner-block" d="M 769.5,526.7 A 294.0,294.0 0 0,1 698.6,556.1 L 705.8,583.1 A 321.9,321.9 0 0,0 783.5,550.8 Z" />
    <path id="B_5:30" class="inner-block" d="M 698.6,556.1 A 294.1,294.1 0 0,1 622.5,566.0 L 622.5,594.0 A 322.0,322.0 0 0,0 705.8,583.1 Z" />
    <path id="B_6:00" class="inner-block" d="M 622.5,566.0 A 294.0,294.0 0 0,1 546.2,556.0 L 539.0,583.1 A 322.0,322.0 0 0,0 622.5,594.0 Z" />
    <path id="B_6:30" class="inner-block" d="M 546.2,556.0 A 294.1,294.1 0 0,1 474.7,526.2 L 460.7,550.4 A 322.0,322.0 0 0,0 539.0,583.1 Z" />
    <path id="B_7:00" class="inner-block" d="M 474.7,526.2 A 294.0,294.0 0 0,1 413.9,479.2 L 394.3,498.8 A 321.9,321.9 0 0,0 460.7,550.4 Z" />
    <path id="B_7:30" class="inner-block" d="M 413.9,479.2 A 294.0,294.0 0 0,1 367.3,418.1 L 343.5,431.8 A 321.7,321.7 0 0,0 394.3,498.8 Z" />
    <path id="B_8:00" class="inner-block" d="M 367.3,418.1 A 294.1,294.1 0 0,1 338.1,347.1 L 311.7,354.2 A 321.5,321.5 0 0,0 343.5,431.8 Z" />
    <path id="B_8:30" class="inner-block" d="M 338.1,347.1 A 294.1,294.1 0 0,1 328.5,272.0 L 301.5,272.0 A 321.5,321.5 0 0,0 311.7,354.2 Z" />
    <path id="B_9:00" class="inner-block" d="M 328.5,272.0 A 294.0,294.0 0 0,1 338.4,195.9 L 312.6,189.0 A 321.0,321.0 0 0,0 301.5,272.0 Z" />
    <path id="B_9:30" class="inner-block" d="M 338.4,195.9 A 294.1,294.1 0 0,1 368.2,124.5 L 345.2,111.2 A 320.8,320.8 0 0,0 312.6,189.0 Z" />
    <path id="C_2:00" class="inner-block" d="M 899.5,110.8 A 320.5,320.5 0 0,1 932.1,188.0 L 953.0,182.4 A 342.2,342.2 0 0,0 918.3,100.0 Z" />
    <path id="C_2:30" class="inner-block" d="M 932.1,188.0 A 320.8,320.8 0 0,1 943.5,272.0 L 965.5,272.0 A 342.4,342.4 0 0,0 953.0,182.4 Z" />
    <path id="C_3:00" class="inner-block" d="M 943.5,272.0 A 321.0,321.0 0 0,1 932.9,355.2 L 954.4,361.0 A 343.0,343.0 0 0,0 965.5,272.0 Z" />
    <path id="C_3:30" class="inner-block" d="M 932.9,355.2 A 321.3,321.3 0 0,1 901.3,432.3 L 920.9,443.6 A 343.6,343.6 0 0,0 954.4,361.0 Z" />
    <path id="C_4:00" class="inner-block" d="M 901.3,432.3 A 321.6,321.6 0 0,1 850.0,499.5 L 866.2,515.8 A 344.2,344.2 0 0,0 920.9,443.6 Z" />
    <path id="C_4:30" class="inner-block" d="M 850.0,499.5 A 321.7,321.7 0 0,1 783.5,550.8 L 795.1,571.0 A 344.7,344.7 0 0,0 866.2,515.8 Z" />
    <path id="C_5:00" class="inner-block" d="M 783.5,550.8 A 321.9,321.9 0 0,1 705.8,583.1 L 712.0,606.0 A 345.2,345.2 0 0,0 795.1,571.0 Z" />
    <path id="C_5:30" class="inner-block" d="M 705.8,583.1 A 322.0,322.0 0 0,1 622.5,594.0 L 622.5,618.0 A 345.7,345.7 0 0,0 712.0,606.0 Z" />
    <path id="C_6:00" class="inner-block" d="M 622.5,594.0 A 322.0,322.0 0 0,1 539.0,583.1 L 532.7,606.5 A 346.0,346.0 0 0,0 622.5,618.0 Z" />
    <path id="C_6:30" class="inner-block" d="M 539.0,583.1 A 322.0,322.0 0 0,1 460.7,550.4 L 448.5,571.5 A 346.3,346.3 0 0,0 532.7,606.5 Z" />
    <path id="C_7:00" class="inner-block" d="M 460.7,550.4 A 321.9,321.9 0 0,1 394.3,498.8 L 377.0,516.0 A 346.3,346.3 0 0,0 448.5,571.5 Z" />
    <path id="C_7:30" class="inner-block" d="M 394.3,498.8 A 321.7,321.7 0 0,1 343.5,431.8 L 322.4,444.0 A 346.1,346.1 0 0,0 377.0,516.0 Z" />
    <path id="C_8:00" class="inner-block" d="M 343.5,431.8 A 321.5,321.5 0 0,1 311.7,354.2 L 288.3,360.5 A 345.9,345.9 0 0,0 322.4,444.0 Z" />
    <path id="C_8:30" class="inner-block" d="M 311.7,354.2 A 321.5,321.5 0 0,1 301.5,272.0 L 277.5,272.0 A 345.7,345.7 0 0,0 288.3,360.5 Z" />
    <path id="C_9:00" class="inner-block" d="M 301.5,272.0 A 321.0,321.0 0 0,1 312.6,189.0 L 289.7,182.9 A 345.0,345.0 0 0,0 277.5,272.0 Z" />
    <path id="C_9:30" class="inner-block" d="M 312.6,189.0 A 320.8,320.8 0 0,1 345.2,111.2 L 325.0,99.6 A 344.5,344.5 0 0,0 289.7,182.9 Z" />
    <path id="D_2:00" class="inner-block" d="M 918.3,100.0 A 342.2,342.2 0 0,1 953.0,182.4 L 979.6,175.2 A 370.1,370.1 0 0,0 943.0,87.0 Z" />
    <path id="D_2:30" class="inner-block" d="M 953.0,182.4 A 342.4,342.4 0 0,1 965.5,272.0 L 992.5,272.0 A 370.0,370.0 0 0,0 979.6,175.2 Z" />
    <path id="D_3:00" class="inner-block" d="M 965.5,272.0 A 343.0,343.0 0 0,1 954.4,361.0 L 980.0,367.8 A 370.0,370.0 0 0,0 992.5,272.0 Z" />
    <path id="D_3:30" class="inner-block" d="M 954.4,361.0 A 343.6,343.6 0 0,1 920.9,443.6 L 943.3,456.5 A 370.1,370.1 0 0,0 980.0,367.8 Z" />
    <path id="D_4:00" class="inner-block" d="M 920.9,443.6 A 344.2,344.2 0 0,1 866.2,515.8 L 884.1,533.7 A 370.1,370.1 0 0,0 943.3,456.5 Z" />
    <path id="D_4:30" class="inner-block" d="M 866.2,515.8 A 344.7,344.7 0 0,1 795.1,571.0 L 807.5,592.6 A 370.0,370.0 0 0,0 884.1,533.7 Z" />
    <path id="D_5:00" class="inner-block" d="M 795.1,571.0 A 345.2,345.2 0 0,1 712.0,606.0 L 718.3,629.5 A 370.1,370.1 0 0,0 807.5,592.6 Z" />
    <path id="D_5:30" class="inner-block" d="M 712.0,606.0 A 345.7,345.7 0 0,1 622.5,618.0 L 622.5,642.0 A 370.1,370.1 0 0,0 718.3,629.5 Z" />
    <path id="D_6:00" class="inner-block" d="M 622.5,618.0 A 346.0,346.0 0 0,1 532.7,606.5 L 526.6,629.5 A 370.0,370.0 0 0,0 622.5,642.0 Z" />
    <path id="D_6:30" class="inner-block" d="M 532.7,606.5 A 346.3,346.3 0 0,1 448.5,571.5 L 436.7,592.1 A 370.1,370.1 0 0,0 526.6,629.5 Z" />
    <path id="D_7:00" class="inner-block" d="M 448.5,571.5 A 346.3,346.3 0 0,1 377.0,516.0 L 360.1,532.9 A 370.1,370.1 0 0,0 436.7,592.1 Z" />
    <path id="D_7:30" class="inner-block" d="M 377.0,516.0 A 346.1,346.1 0 0,1 322.4,444.0 L 301.5,456.1 A 370.0,370.0 0 0,0 360.1,532.9 Z" />
    <path id="D_8:00" class="inner-block" d="M 322.4,444.0 A 345.9,345.9 0 0,1 288.3,360.5 L 264.7,366.8 A 370.1,370.1 0 0,0 301.5,456.1 Z" />
    <path id="D_8:30" class="inner-block" d="M 288.3,360.5 A 345.7,345.7 0 0,1 277.5,272.0 L 252.5,272.0 A 370.2,370.2 0 0,0 264.7,366.8 Z" />
    <path id="D_9:00" class="inner-block" d="M 277.5,272.0 A 345.0,345.0 0 0,1 289.7,182.9 L 265.0,176.3 A 370.0,370.0 0 0,0 252.5,272.0 Z" />
    <path id="D_9:30" class="inner-block" d="M 289.7,182.9 A 344.5,344.5 0 0,1 325.0,99.6 L 302.3,86.5 A 370.1,370.1 0 0,0 265.0,176.3 Z" />
    <path id="E_2:00" class="inner-block" d="M 943.0,87.0 A 370.1,370.1 0 0,1 979.6,175.2 L 1024.1,163.3 A 416.1,416.1 0 0,0 982.3,63.0 Z" />
    <path id="E_2:30" class="inner-block" d="M 979.6,175.2 A 370.0,370.0 0 0,1 992.5,272.0 L 1038.5,272.0 A 416.0,416.0 0 0,0 1024.1,163.3 Z" />
    <path id="E_3:00" class="inner-block" d="M 992.5,272.0 A 370.0,370.0 0 0,1 980.0,367.8 L 1024.4,379.7 A 416.0,416.0 0 0,0 1038.5,272.0 Z" />
    <path id="E_3:30" class="inner-block" d="M 980.0,367.8 A 370.1,370.1 0 0,1 943.3,456.5 L 983.1,479.5 A 416.1,416.1 0 0,0 1024.4,379.7 Z" />
    <path id="E_4:00" class="inner-block" d="M 943.3,456.5 A 370.1,370.1 0 0,1 884.1,533.7 L 916.7,566.2 A 416.1,416.1 0 0,0 983.1,479.5 Z" />
    <path id="E_4:30" class="inner-block" d="M 884.1,533.7 A 370.0,370.0 0 0,1 807.5,592.6 L 830.6,632.4 A 416.0,416.0 0 0,0 916.7,566.2 Z" />
    <path id="E_5:00" class="inner-block" d="M 807.5,592.6 A 370.1,370.1 0 0,1 718.3,629.5 L 730.2,674.0 A 416.1,416.1 0 0,0 830.6,632.4 Z" />
    <path id="E_5:30" class="inner-block" d="M 718.3,629.5 A 370.1,370.1 0 0,1 622.5,642.0 L 622.5,688.0 A 416.1,416.1 0 0,0 730.2,674.0 Z" />
    <path id="E_6:00" class="inner-block" d="M 622.5,642.0 A 370.0,370.0 0 0,1 526.6,629.5 L 514.7,673.9 A 416.0,416.0 0 0,0 622.5,688.0 Z" />
    <path id="E_6:30" class="inner-block" d="M 526.6,629.5 A 370.1,370.1 0 0,1 436.7,592.1 L 413.7,631.9 A 416.1,416.1 0 0,0 514.7,673.9 Z" />
    <path id="E_7:00" class="inner-block" d="M 436.7,592.1 A 370.1,370.1 0 0,1 360.1,532.9 L 327.6,565.4 A 416.1,416.1 0 0,0 413.7,631.9 Z" />
    <path id="E_7:30" class="inner-block" d="M 360.1,532.9 A 370.0,370.0 0 0,1 301.5,456.1 L 261.6,479.1 A 416.0,416.0 0 0,0 327.6,565.4 Z" />
    <path id="E_8:00" class="inner-block" d="M 301.5,456.1 A 370.1,370.1 0 0,1 264.7,366.8 L 220.2,378.7 A 416.1,416.1 0 0,0 261.6,479.1 Z" />
    <path id="E_8:30" class="inner-block" d="M 264.7,366.8 A 370.2,370.2 0 0,1 252.5,272.0 L 206.5,272.0 A 416.2,416.2 0 0,0 220.2,378.7 Z" />
    <path id="E_9:00" class="inner-block" d="M 252.5,272.0 A 370.0,370.0 0 0,1 265.0,176.3 L 220.6,164.3 A 416.0,416.0 0 0,0 206.5,272.0 Z" />
    <path id="E_9:30" class="inner-block" d="M 265.0,176.3 A 370.1,370.1 0 0,1 302.3,86.5 L 262.5,63.5 A 416.1,416.1 0 0,0 220.6,164.3 Z" />
    <path id="F_2:00" class="outer-block" d="M 982.3,63.0 A 416.1,416.1 0 0,1 1006.9,112.8 L 1029.6,102.8 A 440.6,440.6 0 0,0 1004.0,51.8 Z" />
    <path id="F_2:15" class="outer-block" d="M 1006.9,112.8 A 416.1,416.1 0 0,1 1024.1,163.3 L 1048.3,156.8 A 440.8,440.8 0 0,0 1029.6,102.8 Z" />
    <path id="F_2:30" class="outer-block" d="M 1024.1,163.3 A 416.0,416.0 0 0,1 1035.0,217.7 L 1060.1,213.4 A 441.1,441.1 0 0,0 1048.3,156.8 Z" />
    <path id="F_2:45" class="outer-block" d="M 1035.0,217.7 A 416.0,416.0 0 0,1 1038.5,272.0 L 1064.5,272.0 A 441.5,441.5 0 0,0 1060.1,213.4 Z" />
    <path id="F_3:00" class="outer-block" d="M 1038.5,272.0 A 416.0,416.0 0 0,1 1035.0,326.3 L 1061.3,328.9 A 442.0,442.0 0 0,0 1064.5,272.0 Z" />
    <path id="F_3:15" class="outer-block" d="M 1035.0,326.3 A 416.0,416.0 0 0,1 1024.4,379.7 L 1050.3,386.7 A 442.4,442.4 0 0,0 1061.3,328.9 Z" />
    <path id="F_3:30" class="outer-block" d="M 1024.4,379.7 A 416.1,416.1 0 0,1 1007.2,430.6 L 1032.3,441.0 A 442.9,442.9 0 0,0 1050.3,386.7 Z" />
    <path id="F_3:45" class="outer-block" d="M 1007.2,430.6 A 416.1,416.1 0 0,1 983.1,479.5 L 1006.9,493.3 A 443.2,443.2 0 0,0 1032.3,441.0 Z" />
    <path id="F_4:00" class="outer-block" d="M 983.1,479.5 A 416.1,416.1 0 0,1 952.9,524.9 L 974.9,541.8 A 443.6,443.6 0 0,0 1006.9,493.3 Z" />
    <path id="F_4:15" class="outer-block" d="M 952.9,524.9 A 416.0,416.0 0 0,1 916.7,566.2 L 936.6,586.1 A 443.8,443.8 0 0,0 974.9,541.8 Z" />
    <path id="F_4:30" class="outer-block" d="M 916.7,566.2 A 416.0,416.0 0 0,1 875.9,602.0 L 893.2,624.5 A 444.1,444.1 0 0,0 936.6,586.1 Z" />
    <path id="F_4:45" class="outer-block" d="M 875.9,602.0 A 416.1,416.1 0 0,1 830.6,632.4 L 844.9,657.2 A 444.4,444.4 0 0,0 893.2,624.5 Z" />
    <path id="F_5:00" class="outer-block" d="M 830.6,632.4 A 416.1,416.1 0 0,1 781.7,656.5 L 792.7,683.1 A 444.7,444.7 0 0,0 844.9,657.2 Z" />
    <path id="F_5:15" class="outer-block" d="M 781.7,656.5 A 416.1,416.1 0 0,1 730.2,674.0 L 737.7,701.9 A 444.9,444.9 0 0,0 792.7,683.1 Z" />
    <path id="F_5:30" class="outer-block" d="M 730.2,674.0 A 416.1,416.1 0 0,1 676.4,684.6 L 680.2,713.3 A 445.0,445.0 0 0,0 737.7,701.9 Z" />
    <path id="F_5:45" class="outer-block" d="M 676.4,684.6 A 416.1,416.1 0 0,1 622.5,688.0 L 622.5,717.0 A 445.0,445.0 0 0,0 680.2,713.3 Z" />
    <path id="F_6:00" class="outer-block" d="M 622.5,688.0 A 416.0,416.0 0 0,1 567.6,684.4 L 563.8,713.2 A 445.0,445.0 0 0,0 622.5,717.0 Z" />
    <path id="F_6:15" class="outer-block" d="M 567.6,684.4 A 416.0,416.0 0 0,1 514.7,673.9 L 507.2,701.9 A 445.0,445.0 0 0,0 563.8,713.2 Z" />
    <path id="F_6:30" class="outer-block" d="M 514.7,673.9 A 416.1,416.1 0 0,1 463.3,656.5 L 451.5,682.7 A 445.0,445.0 0 0,0 507.2,701.9 Z" />
    <path id="F_6:45" class="outer-block" d="M 463.3,656.5 A 416.1,416.1 0 0,1 413.7,631.9 L 399.4,656.7 A 444.9,444.9 0 0,0 451.5,682.7 Z" />
    <path id="F_7:00" class="outer-block" d="M 413.7,631.9 A 416.1,416.1 0 0,1 368.4,601.5 L 351.2,624.0 A 444.7,444.7 0 0,0 399.4,656.7 Z" />
    <path id="F_7:15" class="outer-block" d="M 368.4,601.5 A 416.0,416.0 0 0,1 327.6,565.4 L 307.7,585.3 A 444.4,444.4 0 0,0 351.2,624.0 Z" />
    <path id="F_7:30" class="outer-block" d="M 327.6,565.4 A 416.0,416.0 0 0,1 291.8,524.4 L 269.7,541.4 A 444.1,444.1 0 0,0 307.7,585.3 Z" />
    <path id="F_7:45" class="outer-block" d="M 291.8,524.4 A 416.0,416.0 0 0,1 261.6,479.1 L 237.8,492.9 A 443.8,443.8 0 0,0 269.7,541.4 Z" />
    <path id="F_8:00" class="outer-block" d="M 261.6,479.1 A 416.1,416.1 0 0,1 237.6,430.3 L 212.4,440.7 A 443.6,443.6 0 0,0 237.8,492.9 Z" />
    <path id="F_8:15" class="outer-block" d="M 237.6,430.3 A 416.1,416.1 0 0,1 220.2,378.7 L 194.2,385.7 A 443.4,443.4 0 0,0 212.4,440.7 Z" />
    <path id="F_8:30" class="outer-block" d="M 220.2,378.7 A 416.2,416.2 0 0,1 209.8,325.3 L 183.6,328.8 A 443.1,443.1 0 0,0 194.2,385.7 Z" />
    <path id="F_8:45" class="outer-block" d="M 209.8,325.3 A 416.1,416.1 0 0,1 206.5,272.0 L 180.5,272.0 A 442.5,442.5 0 0,0 183.6,328.8 Z" />
    <path id="F_9:00" class="outer-block" d="M 206.5,272.0 A 416.0,416.0 0 0,1 210.1,216.8 L 184.8,213.5 A 442.0,442.0 0 0,0 180.5,272.0 Z" />
    <path id="F_9:15" class="outer-block" d="M 210.1,216.8 A 416.0,416.0 0 0,1 220.6,164.3 L 196.2,157.8 A 441.6,441.6 0 0,0 184.8,213.5 Z" />
    <path id="F_9:30" class="outer-block" d="M 220.6,164.3 A 416.1,416.1 0 0,1 238.3,112.1 L 215.4,102.6 A 441.3,441.3 0 0,0 196.2,157.8 Z" />
    <path id="F_9:45" class="outer-block" d="M 238.3,112.1 A 416.1,416.1 0 0,1 262.5,63.5 L 241.3,51.2 A 441.0,441.0 0 0,0 215.4,102.6 Z" />
    <path id="G_2:00" class="outer-block" d="M 1004.0,51.8 A 440.6,440.6 0 0,1 1029.6,102.8 L 1052.7,93.2 A 465.7,465.7 0 0,0 1025.3,38.2 Z" />
    <path id="G_2:15" class="outer-block" d="M 1029.6,102.8 A 440.8,440.8 0 0,1 1048.3,156.8 L 1072.5,150.3 A 465.9,465.9 0 0,0 1052.7,93.2 Z" />
    <path id="G_2:30" class="outer-block" d="M 1048.3,156.8 A 441.1,441.1 0 0,1 1060.1,213.4 L 1084.9,210.1 A 466.1,466.1 0 0,0 1072.5,150.3 Z" />
    <path id="G_2:45" class="outer-block" d="M 1060.1,213.4 A 441.5,441.5 0 0,1 1064.5,272.0 L 1089.5,272.0 A 466.5,466.5 0 0,0 1084.9,210.1 Z" />
    <path id="G_3:00" class="outer-block" d="M 1064.5,272.0 A 442.0,442.0 0 0,1 1061.3,328.9 L 1086.1,332.1 A 467.0,467.0 0 0,0 1089.5,272.0 Z" />
    <path id="G_3:15" class="outer-block" d="M 1061.3,328.9 A 442.4,442.4 0 0,1 1050.3,386.7 L 1074.5,393.1 A 467.4,467.4 0 0,0 1086.1,332.1 Z" />
    <path id="G_3:30" class="outer-block" d="M 1050.3,386.7 A 442.9,442.9 0 0,1 1032.3,441.0 L 1055.5,450.6 A 467.9,467.9 0 0,0 1074.5,393.1 Z" />
    <path id="G_3:45" class="outer-block" d="M 1032.3,441.0 A 443.2,443.2 0 0,1 1006.9,493.3 L 1028.7,505.9 A 468.3,468.3 0 0,0 1055.5,450.6 Z" />
    <path id="G_4:00" class="outer-block" d="M 1006.9,493.3 A 443.6,443.6 0 0,1 974.9,541.8 L 994.9,557.2 A 468.7,468.7 0 0,0 1028.7,505.9 Z" />
    <path id="G_4:15" class="outer-block" d="M 974.9,541.8 A 443.8,443.8 0 0,1 936.6,586.1 L 954.4,604.0 A 469.0,469.0 0 0,0 994.9,557.2 Z" />
    <path id="G_4:30" class="outer-block" d="M 936.6,586.1 A 444.1,444.1 0 0,1 893.2,624.5 L 908.6,644.6 A 469.4,469.4 0 0,0 954.4,604.0 Z" />
    <path id="G_4:45" class="outer-block" d="M 893.2,624.5 A 444.4,444.4 0 0,1 844.9,657.2 L 857.6,679.2 A 469.8,469.8 0 0,0 908.6,644.6 Z" />
    <path id="G_5:00" class="outer-block" d="M 844.9,657.2 A 444.7,444.7 0 0,1 792.7,683.1 L 802.5,706.7 A 470.1,470.1 0 0,0 857.6,679.2 Z" />
    <path id="G_5:15" class="outer-block" d="M 792.7,683.1 A 444.9,444.9 0 0,1 737.7,701.9 L 744.3,726.7 A 470.5,470.5 0 0,0 802.5,706.7 Z" />
    <path id="G_5:30" class="outer-block" d="M 737.7,701.9 A 445.0,445.0 0 0,1 680.2,713.3 L 683.6,738.9 A 470.7,470.7 0 0,0 744.3,726.7 Z" />
    <path id="G_5:45" class="outer-block" d="M 680.2,713.3 A 445.0,445.0 0 0,1 622.5,717.0 L 622.5,743.0 A 470.9,470.9 0 0,0 683.6,738.9 Z" />
    <path id="G_6:00" class="outer-block" d="M 622.5,717.0 A 445.0,445.0 0 0,1 563.8,713.2 L 560.4,739.1 A 471.0,471.0 0 0,0 622.5,743.0 Z" />
    <path id="G_6:15" class="outer-block" d="M 563.8,713.2 A 445.0,445.0 0 0,1 507.2,701.9 L 500.4,727.2 A 471.2,471.2 0 0,0 560.4,739.1 Z" />
    <path id="G_6:30" class="outer-block" d="M 507.2,701.9 A 445.0,445.0 0 0,1 451.5,682.7 L 441.4,707.1 A 471.3,471.3 0 0,0 500.4,727.2 Z" />
    <path id="G_6:45" class="outer-block" d="M 451.5,682.7 A 444.9,444.9 0 0,1 399.4,656.7 L 386.1,679.6 A 471.3,471.3 0 0,0 441.4,707.1 Z" />
    <path id="G_7:00" class="outer-block" d="M 399.4,656.7 A 444.7,444.7 0 0,1 351.2,624.0 L 335.0,645.1 A 471.2,471.2 0 0,0 386.1,679.6 Z" />
    <path id="G_7:15" class="outer-block" d="M 351.2,624.0 A 444.4,444.4 0 0,1 307.7,585.3 L 288.8,604.2 A 471.0,471.0 0 0,0 335.0,645.1 Z" />
    <path id="G_7:30" class="outer-block" d="M 307.7,585.3 A 444.1,444.1 0 0,1 269.7,541.4 L 248.5,557.7 A 470.8,470.8 0 0,0 288.8,604.2 Z" />
    <path id="G_7:45" class="outer-block" d="M 269.7,541.4 A 443.8,443.8 0 0,1 237.8,492.9 L 214.5,506.3 A 470.6,470.6 0 0,0 248.5,557.7 Z" />
    <path id="G_8:00" class="outer-block" d="M 237.8,492.9 A 443.6,443.6 0 0,1 212.4,440.7 L 187.6,451.0 A 470.4,470.4 0 0,0 214.5,506.3 Z" />
    <path id="G_8:15" class="outer-block" d="M 212.4,440.7 A 443.4,443.4 0 0,1 194.2,385.7 L 168.2,392.6 A 470.3,470.3 0 0,0 187.6,451.0 Z" />
    <path id="G_8:30" class="outer-block" d="M 194.2,385.7 A 443.1,443.1 0 0,1 183.6,328.8 L 156.8,332.3 A 470.1,470.1 0 0,0 168.2,392.6 Z" />
    <path id="G_8:45" class="outer-block" d="M 183.6,328.8 A 442.5,442.5 0 0,1 180.5,272.0 L 153.5,272.0 A 469.5,469.5 0 0,0 156.8,332.3 Z" />
    <path id="G_9:00" class="outer-block" d="M 180.5,272.0 A 442.0,442.0 0 0,1 184.8,213.5 L 158.0,210.0 A 469.0,469.0 0 0,0 153.5,272.0 Z" />
    <path id="G_9:15" class="outer-block" d="M 184.8,213.5 A 441.6,441.6 0 0,1 196.2,157.8 L 170.2,150.8 A 468.6,468.6 0 0,0 158.0,210.0 Z" />
    <path id="G_9:30" class="outer-block" d="M 196.2,157.8 A 441.3,441.3 0 0,1 215.4,102.6 L 190.5,92.3 A 468.3,468.3 0 0,0 170.2,150.8 Z" />
    <path id="G_9:45" class="outer-block" d="M 215.4,102.6 A 441.0,441.0 0 0,1 241.3,51.2 L 218.0,37.8 A 467.9,467.9 0 0,0 190.5,92.3 Z" />
    <path id="H_2:00" class="outer-block" d="M 1025.3,38.2 A 465.7,465.7 0 0,1 1052.7,93.2 L 1076.1,83.6 A 491.2,491.2 0 0,0 1047.9,26.4 Z" />
    <path id="H_2:15" class="outer-block" d="M 1052.7,93.2 A 465.9,465.9 0 0,1 1072.5,150.3 L 1096.6,143.9 A 491.2,491.2 0 0,0 1076.1,83.6 Z" />
    <path id="H_2:30" class="outer-block" d="M 1072.5,150.3 A 466.1,466.1 0 0,1 1084.9,210.1 L 1109.2,206.9 A 491.1,491.1 0 0,0 1096.6,143.9 Z" />
    <path id="H_2:45" class="outer-block" d="M 1084.9,210.1 A 466.5,466.5 0 0,1 1089.5,272.0 L 1113.5,272.0 A 491.0,491.0 0 0,0 1109.2,206.9 Z" />
    <path id="H_3:00" class="outer-block" d="M 1089.5,272.0 A 467.0,467.0 0 0,1 1086.1,332.1 L 1109.5,335.2 A 491.0,491.0 0 0,0 1113.5,272.0 Z" />
    <path id="H_3:15" class="outer-block" d="M 1086.1,332.1 A 467.4,467.4 0 0,1 1074.5,393.1 L 1096.9,399.2 A 491.1,491.1 0 0,0 1109.5,335.2 Z" />
    <path id="H_3:30" class="outer-block" d="M 1074.5,393.1 A 467.9,467.9 0 0,1 1055.5,450.6 L 1076.6,459.3 A 491.2,491.2 0 0,0 1096.9,399.2 Z" />
    <path id="H_3:45" class="outer-block" d="M 1055.5,450.6 A 468.3,468.3 0 0,1 1028.7,505.9 L 1048.2,517.1 A 491.2,491.2 0 0,0 1076.6,459.3 Z" />
    <path id="H_4:00" class="outer-block" d="M 1028.7,505.9 A 468.7,468.7 0 0,1 994.9,557.2 L 1012.5,570.7 A 491.2,491.2 0 0,0 1048.2,517.1 Z" />
    <path id="H_4:15" class="outer-block" d="M 994.9,557.2 A 469.0,469.0 0 0,1 954.4,604.0 L 969.9,619.4 A 491.2,491.2 0 0,0 1012.5,570.7 Z" />
    <path id="H_4:30" class="outer-block" d="M 954.4,604.0 A 469.4,469.4 0 0,1 908.6,644.6 L 921.8,661.8 A 491.3,491.3 0 0,0 969.9,619.4 Z" />
    <path id="H_4:45" class="outer-block" d="M 908.6,644.6 A 469.8,469.8 0 0,1 857.6,679.2 L 868.3,697.7 A 491.4,491.4 0 0,0 921.8,661.8 Z" />
    <path id="H_5:00" class="outer-block" d="M 857.6,679.2 A 470.1,470.1 0 0,1 802.5,706.7 L 810.6,726.4 A 491.5,491.5 0 0,0 868.3,697.7 Z" />
    <path id="H_5:15" class="outer-block" d="M 802.5,706.7 A 470.5,470.5 0 0,1 744.3,726.7 L 749.8,747.1 A 491.7,491.7 0 0,0 810.6,726.4 Z" />
    <path id="H_5:30" class="outer-block" d="M 744.3,726.7 A 470.7,470.7 0 0,1 683.6,738.9 L 686.3,759.8 A 491.8,491.8 0 0,0 749.8,747.1 Z" />
    <path id="H_5:45" class="outer-block" d="M 683.6,738.9 A 470.9,470.9 0 0,1 622.5,743.0 L 622.5,764.0 A 491.9,491.9 0 0,0 686.3,759.8 Z" />
    <path id="H_6:00" class="outer-block" d="M 622.5,743.0 A 471.0,471.0 0 0,1 560.4,739.1 L 557.6,759.9 A 492.0,492.0 0 0,0 622.5,764.0 Z" />
    <path id="H_6:15" class="outer-block" d="M 560.4,739.1 A 471.2,471.2 0 0,1 500.4,727.2 L 495.0,747.6 A 492.2,492.2 0 0,0 557.6,759.9 Z" />
    <path id="H_6:30" class="outer-block" d="M 500.4,727.2 A 471.3,471.3 0 0,1 441.4,707.1 L 433.2,726.7 A 492.4,492.4 0 0,0 495.0,747.6 Z" />
    <path id="H_6:45" class="outer-block" d="M 441.4,707.1 A 471.3,471.3 0 0,1 386.1,679.6 L 375.4,698.2 A 492.5,492.5 0 0,0 433.2,726.7 Z" />
    <path id="H_7:00" class="outer-block" d="M 386.1,679.6 A 471.2,471.2 0 0,1 335.0,645.1 L 321.8,662.3 A 492.6,492.6 0 0,0 375.4,698.2 Z" />
    <path id="H_7:15" class="outer-block" d="M 335.0,645.1 A 471.0,471.0 0 0,1 288.8,604.2 L 273.4,619.7 A 492.6,492.6 0 0,0 321.8,662.3 Z" />
    <path id="H_7:30" class="outer-block" d="M 288.8,604.2 A 470.8,470.8 0 0,1 248.5,557.7 L 230.9,571.2 A 492.7,492.7 0 0,0 273.4,619.7 Z" />
    <path id="H_7:45" class="outer-block" d="M 248.5,557.7 A 470.6,470.6 0 0,1 214.5,506.3 L 195.0,517.5 A 492.8,492.8 0 0,0 230.9,571.2 Z" />
    <path id="H_8:00" class="outer-block" d="M 214.5,506.3 A 470.4,470.4 0 0,1 187.6,451.0 L 166.5,459.7 A 492.9,492.9 0 0,0 195.0,517.5 Z" />
    <path id="H_8:15" class="outer-block" d="M 187.6,451.0 A 470.3,470.3 0 0,1 168.2,392.6 L 145.9,398.6 A 493.1,493.1 0 0,0 166.5,459.7 Z" />
    <path id="H_8:30" class="outer-block" d="M 168.2,392.6 A 470.1,470.1 0 0,1 156.8,332.3 L 133.5,335.4 A 493.1,493.1 0 0,0 145.9,398.6 Z" />
    <path id="H_8:45" class="outer-block" d="M 156.8,332.3 A 469.5,469.5 0 0,1 153.5,272.0 L 129.5,272.0 A 493.1,493.1 0 0,0 133.5,335.4 Z" />
    <path id="H_9:00" class="outer-block" d="M 153.5,272.0 A 469.0,469.0 0 0,1 158.0,210.0 L 133.8,206.8 A 493.0,493.0 0 0,0 129.5,272.0 Z" />
    <path id="H_9:15" class="outer-block" d="M 158.0,210.0 A 468.6,468.6 0 0,1 170.2,150.8 L 146.2,144.4 A 493.0,493.0 0 0,0 133.8,206.8 Z" />
    <path id="H_9:30" class="outer-block" d="M 170.2,150.8 A 468.3,468.3 0 0,1 190.5,92.3 L 167.3,82.7 A 493.1,493.1 0 0,0 146.2,144.4 Z" />
    <path id="H_9:45" class="outer-block" d="M 190.5,92.3 A 467.9,467.9 0 0,1 218.0,37.8 L 195.9,25.0 A 493.0,493.0 0 0,0 167.3,82.7 Z" />
    <path id="I_2:00" class="outer-block" d="M 1047.9,26.4 A 491.2,491.2 0 0,1 1076.1,83.6 L 1096.9,75.0 A 513.6,513.6 0 0,0 1067.3,15.3 Z" />
    <path id="I_2:15" class="outer-block" d="M 1076.1,83.6 A 491.2,491.2 0 0,1 1096.6,143.9 L 1118.5,138.0 A 513.7,513.7 0 0,0 1096.9,75.0 Z" />
    <path id="I_2:30" class="outer-block" d="M 1096.6,143.9 A 491.1,491.1 0 0,1 1109.2,206.9 L 1131.8,203.9 A 513.7,513.7 0 0,0 1118.5,138.0 Z" />
    <path id="I_2:45" class="outer-block" d="M 1109.2,206.9 A 491.0,491.0 0 0,1 1113.5,272.0 L 1136.5,272.0 A 513.9,513.9 0 0,0 1131.8,203.9 Z" />
    <path id="I_3:00" class="outer-block" d="M 1113.5,272.0 A 491.0,491.0 0 0,1 1109.5,335.2 L 1132.4,338.2 A 514.0,514.0 0 0,0 1136.5,272.0 Z" />
    <path id="I_3:15" class="outer-block" d="M 1109.5,335.2 A 491.1,491.1 0 0,1 1096.9,399.2 L 1119.4,405.2 A 514.2,514.2 0 0,0 1132.4,338.2 Z" />
    <path id="I_3:30" class="outer-block" d="M 1096.9,399.2 A 491.2,491.2 0 0,1 1076.6,459.3 L 1098.1,468.3 A 514.4,514.4 0 0,0 1119.4,405.2 Z" />
    <path id="I_3:45" class="outer-block" d="M 1076.6,459.3 A 491.2,491.2 0 0,1 1048.2,517.1 L 1068.5,528.8 A 514.5,514.5 0 0,0 1098.1,468.3 Z" />
    <path id="I_4:00" class="outer-block" d="M 1048.2,517.1 A 491.2,491.2 0 0,1 1012.5,570.7 L 1031.1,584.9 A 514.6,514.6 0 0,0 1068.5,528.8 Z" />
    <path id="I_4:15" class="outer-block" d="M 1012.5,570.7 A 491.2,491.2 0 0,1 969.9,619.4 L 986.5,636.0 A 514.6,514.6 0 0,0 1031.1,584.9 Z" />
    <path id="I_4:30" class="outer-block" d="M 969.9,619.4 A 491.3,491.3 0 0,1 921.8,661.8 L 936.1,680.4 A 514.7,514.7 0 0,0 986.5,636.0 Z" />
    <path id="I_4:45" class="outer-block" d="M 921.8,661.8 A 491.4,491.4 0 0,1 868.3,697.7 L 880.0,718.0 A 514.8,514.8 0 0,0 936.1,680.4 Z" />
    <path id="I_5:00" class="outer-block" d="M 868.3,697.7 A 491.5,491.5 0 0,1 810.6,726.4 L 819.5,747.9 A 515.0,515.0 0 0,0 880.0,718.0 Z" />
    <path id="I_5:15" class="outer-block" d="M 810.6,726.4 A 491.7,491.7 0 0,1 749.8,747.1 L 755.8,769.6 A 515.1,515.1 0 0,0 819.5,747.9 Z" />
    <path id="I_5:30" class="outer-block" d="M 749.8,747.1 A 491.8,491.8 0 0,1 686.3,759.8 L 689.4,782.7 A 515.1,515.1 0 0,0 755.8,769.6 Z" />
    <path id="I_5:45" class="outer-block" d="M 686.3,759.8 A 491.9,491.9 0 0,1 622.5,764.0 L 622.5,787.0 A 515.1,515.1 0 0,0 689.4,782.7 Z" />
    <path id="I_6:00" class="outer-block" d="M 622.5,764.0 A 492.0,492.0 0 0,1 557.6,759.9 L 554.7,782.6 A 515.0,515.0 0 0,0 622.5,787.0 Z" />
    <path id="I_6:15" class="outer-block" d="M 557.6,759.9 A 492.2,492.2 0 0,1 495.0,747.6 L 489.1,769.6 A 515.0,515.0 0 0,0 554.7,782.6 Z" />
    <path id="I_6:30" class="outer-block" d="M 495.0,747.6 A 492.4,492.4 0 0,1 433.2,726.7 L 424.6,747.6 A 515.1,515.1 0 0,0 489.1,769.6 Z" />
    <path id="I_6:45" class="outer-block" d="M 433.2,726.7 A 492.5,492.5 0 0,1 375.4,698.2 L 364.2,717.5 A 515.1,515.1 0 0,0 424.6,747.6 Z" />
    <path id="I_7:00" class="outer-block" d="M 375.4,698.2 A 492.6,492.6 0 0,1 321.8,662.3 L 308.3,679.9 A 514.9,514.9 0 0,0 364.2,717.5 Z" />
    <path id="I_7:15" class="outer-block" d="M 321.8,662.3 A 492.6,492.6 0 0,1 273.4,619.7 L 257.8,635.2 A 514.8,514.8 0 0,0 308.3,679.9 Z" />
    <path id="I_7:30" class="outer-block" d="M 273.4,619.7 A 492.7,492.7 0 0,1 230.9,571.2 L 213.6,584.5 A 514.7,514.7 0 0,0 257.8,635.2 Z" />
    <path id="I_7:45" class="outer-block" d="M 230.9,571.2 A 492.8,492.8 0 0,1 195.0,517.5 L 176.3,528.4 A 514.6,514.6 0 0,0 213.6,584.5 Z" />
    <path id="I_8:00" class="outer-block" d="M 195.0,517.5 A 492.9,492.9 0 0,1 166.5,459.7 L 146.7,467.9 A 514.6,514.6 0 0,0 176.3,528.4 Z" />
    <path id="I_8:15" class="outer-block" d="M 166.5,459.7 A 493.1,493.1 0 0,1 145.9,398.6 L 125.2,404.1 A 514.6,514.6 0 0,0 146.7,467.9 Z" />
    <path id="I_8:30" class="outer-block" d="M 145.9,398.6 A 493.1,493.1 0 0,1 133.5,335.4 L 112.5,338.1 A 514.5,514.5 0 0,0 125.2,404.1 Z" />
    <path id="I_8:45" class="outer-block" d="M 133.5,335.4 A 493.1,493.1 0 0,1 129.5,272.0 L 108.5,272.0 A 514.2,514.2 0 0,0 112.5,338.1 Z" />
    <path id="I_9:00" class="outer-block" d="M 129.5,272.0 A 493.0,493.0 0 0,1 133.8,206.8 L 113.1,204.0 A 514.0,514.0 0 0,0 108.5,272.0 Z" />
    <path id="I_9:15" class="outer-block" d="M 133.8,206.8 A 493.0,493.0 0 0,1 146.2,144.4 L 126.1,139.0 A 513.9,513.9 0 0,0 113.1,204.0 Z" />
    <path id="I_9:30" class="outer-block" d="M 146.2,144.4 A 493.1,493.1 0 0,1 167.3,82.7 L 148.1,74.8 A 513.9,513.9 0 0,0 126.1,139.0 Z" />
    <path id="I_9:45" class="outer-block" d="M 167.3,82.7 A 493.0,493.0 0 0,1 195.9,25.0 L 178.0,14.7 A 513.7,513.7 0 0,0 148.1,74.8 Z" />
    <path id="J_2:00" class="outer-block" d="M 1067.3,15.3 A 513.6,513.6 0 0,1 1096.9,75.0 L 1118.9,66.4 A 537.0,537.0 0 0,0 1087.0,2.6 Z" />
    <path id="J_2:15" class="outer-block" d="M 1096.9,75.0 A 513.7,513.7 0 0,1 1118.5,138.0 L 1140.9,132.0 A 537.3,537.3 0 0,0 1118.9,66.4 Z" />
    <path id="J_2:30" class="outer-block" d="M 1118.5,138.0 A 513.7,513.7 0 0,1 1131.8,203.9 L 1154.5,202.0 A 537.0,537.0 0 0,0 1140.9,132.0 Z" />
    <path id="J_2:45" class="outer-block" d="M 1131.8,203.9 A 513.9,513.9 0 0,1 1136.5,272.0 L 1158.7,272.0 A 536.6,536.6 0 0,0 1154.5,202.0 Z" />
    <path id="J_3:00" class="outer-block" d="M 1136.5,272.0 A 514.0,514.0 0 0,1 1132.4,338.2 L 1153.9,341.1 A 536.2,536.2 0 0,0 1158.7,272.0 Z" />
    <path id="J_3:15" class="outer-block" d="M 1132.4,338.2 A 514.2,514.2 0 0,1 1119.4,405.2 L 1139.9,410.7 A 535.9,535.9 0 0,0 1153.9,341.1 Z" />
    <path id="J_3:30" class="outer-block" d="M 1119.4,405.2 A 514.4,514.4 0 0,1 1098.1,468.3 L 1117.1,476.9 A 535.6,535.6 0 0,0 1139.9,410.7 Z" />
    <path id="J_3:45" class="outer-block" d="M 1098.1,468.3 A 514.5,514.5 0 0,1 1068.5,528.8 L 1085.9,539.6 A 535.3,535.3 0 0,0 1117.1,476.9 Z" />
    <path id="J_4:00" class="outer-block" d="M 1068.5,528.8 A 514.6,514.6 0 0,1 1031.1,584.9 L 1046.7,597.6 A 535.0,535.0 0 0,0 1085.9,539.6 Z" />
    <path id="J_4:15" class="outer-block" d="M 1031.1,584.9 A 514.6,514.6 0 0,1 986.5,636.0 L 1000.5,650.0 A 534.7,534.7 0 0,0 1046.7,597.6 Z" />
    <path id="J_4:30" class="outer-block" d="M 986.5,636.0 A 514.7,514.7 0 0,1 936.1,680.4 L 948.0,695.9 A 534.5,534.5 0 0,0 1000.5,650.0 Z" />
    <path id="J_4:45" class="outer-block" d="M 936.1,680.4 A 514.8,514.8 0 0,1 880.0,718.0 L 889.7,734.8 A 534.4,534.4 0 0,0 948.0,695.9 Z" />
    <path id="J_5:00" class="outer-block" d="M 880.0,718.0 A 515.0,515.0 0 0,1 819.5,747.9 L 827.0,765.6 A 534.3,534.3 0 0,0 889.7,734.8 Z" />
    <path id="J_5:15" class="outer-block" d="M 819.5,747.9 A 515.1,515.1 0 0,1 755.8,769.6 L 760.8,788.1 A 534.3,534.3 0 0,0 827.0,765.6 Z" />
    <path id="J_5:30" class="outer-block" d="M 755.8,769.6 A 515.1,515.1 0 0,1 689.4,782.7 L 692.2,801.6 A 534.2,534.2 0 0,0 760.8,788.1 Z" />
    <path id="J_5:45" class="outer-block" d="M 689.4,782.7 A 515.1,515.1 0 0,1 622.5,787.0 L 622.5,806.2 A 534.1,534.1 0 0,0 692.2,801.6 Z" />
    <path id="J_6:00" class="outer-block" d="M 622.5,787.0 A 515.0,515.0 0 0,1 554.7,782.6 L 552.8,801.7 A 534.1,534.1 0 0,0 622.5,806.2 Z" />
    <path id="J_6:15" class="outer-block" d="M 554.7,782.6 A 515.0,515.0 0 0,1 489.1,769.6 L 484.1,788.3 A 534.3,534.3 0 0,0 552.8,801.7 Z" />
    <path id="J_6:30" class="outer-block" d="M 489.1,769.6 A 515.1,515.1 0 0,1 424.6,747.6 L 417.9,766.0 A 534.5,534.5 0 0,0 484.1,788.3 Z" />
    <path id="J_6:45" class="outer-block" d="M 424.6,747.6 A 515.1,515.1 0 0,1 364.2,717.5 L 355.1,735.2 A 534.7,534.7 0 0,0 417.9,766.0 Z" />
    <path id="J_7:00" class="outer-block" d="M 364.2,717.5 A 514.9,514.9 0 0,1 308.3,679.9 L 296.8,696.5 A 534.8,534.8 0 0,0 355.1,735.2 Z" />
    <path id="J_7:15" class="outer-block" d="M 308.3,679.9 A 514.8,514.8 0 0,1 257.8,635.2 L 244.0,650.5 A 535.0,535.0 0 0,0 296.8,696.5 Z" />
    <path id="J_7:30" class="outer-block" d="M 257.8,635.2 A 514.7,514.7 0 0,1 213.6,584.5 L 197.6,598.1 A 535.2,535.2 0 0,0 244.0,650.5 Z" />
    <path id="J_7:45" class="outer-block" d="M 213.6,584.5 A 514.6,514.6 0 0,1 176.3,528.4 L 158.4,540.0 A 535.5,535.5 0 0,0 197.6,598.1 Z" />
    <path id="J_8:00" class="outer-block" d="M 176.3,528.4 A 514.6,514.6 0 0,1 146.7,467.9 L 127.0,477.3 A 535.9,535.9 0 0,0 158.4,540.0 Z" />
    <path id="J_8:15" class="outer-block" d="M 146.7,467.9 A 514.6,514.6 0 0,1 125.2,404.1 L 104.2,410.9 A 536.3,536.3 0 0,0 127.0,477.3 Z" />
    <path id="J_8:30" class="outer-block" d="M 125.2,404.1 A 514.5,514.5 0 0,1 112.5,338.1 L 90.1,341.1 A 536.6,536.6 0 0,0 104.2,410.9 Z" />
    <path id="J_8:45" class="outer-block" d="M 112.5,338.1 A 514.2,514.2 0 0,1 108.5,272.0 L 85.3,272.0 A 536.9,536.9 0 0,0 90.1,341.1 Z" />
    <path id="J_9:00" class="outer-block" d="M 108.5,272.0 A 514.0,514.0 0 0,1 113.1,204.0 L 89.6,201.9 A 537.2,537.2 0 0,0 85.3,272.0 Z" />
    <path id="J_9:15" class="outer-block" d="M 113.1,204.0 A 513.9,513.9 0 0,1 126.1,139.0 L 102.9,132.8 A 537.5,537.5 0 0,0 89.6,201.9 Z" />
    <path id="J_9:30" class="outer-block" d="M 126.1,139.0 A 513.9,513.9 0 0,1 148.1,74.8 L 125.3,66.1 A 537.9,537.9 0 0,0 102.9,132.8 Z" />
    <path id="J_9:45" class="outer-block" d="M 148.1,74.8 A 513.7,513.7 0 0,1 178.0,14.7 L 156.2,2.8 A 538.2,538.2 0 0,0 125.3,66.1 Z" />
  </g>
</svg>