<?xml version="1.0" standalone="no"?>
<!DOCTYPE svg PUBLIC "-//W3C//DTD SVG 20010904//EN"
 "http://www.w3.org/TR/2001/REC-SVG-20010904/DTD/svg10.dtd">
<svg version="1.0" xmlns="http://www.w3.org/2000/svg"
 width="728.000000pt" height="510.000000pt" viewBox="0 0 728.000000 510.000000"
 preserveAspectRatio="xMidYMid meet">

<g transform="translate(0.000000,510.000000) scale(0.100000,-0.100000)"
fill="#000000" stroke="none">
<path d="M2420 4440 c-8 -5 -26 -10 -39 -10 -14 0 -38 -4 -55 -9 -17 -5 -51
-15 -76 -21 -25 -7 -56 -16 -70 -20 -14 -4 -45 -13 -70 -20 -59 -17 -220 -69
-245 -80 -11 -4 -51 -20 -90 -35 -133 -51 -357 -158 -464 -222 -121 -73 -275
-176 -301 -203 -3 -3 -30 -25 -60 -50 -30 -24 -91 -80 -135 -125 -337 -340
-472 -749 -373 -1130 16 -60 30 -108 38 -130 5 -11 14 -36 21 -55 23 -66 93
-195 153 -285 33 -49 63 -92 66 -95 3 -3 25 -30 50 -60 68 -85 214 -227 325
-316 85 -68 337 -244 349 -244 3 0 42 -22 88 -48 122 -70 278 -144 428 -201
47 -18 94 -37 105 -41 11 -5 52 -19 90 -31 39 -12 79 -25 90 -29 18 -7 52 -17
145 -42 19 -6 49 -14 66 -19 55 -16 69 -12 83 29 8 20 23 57 33 82 11 25 24
54 28 65 4 11 15 36 23 55 9 19 25 60 37 90 22 57 33 82 69 162 11 26 21 54
21 61 0 7 4 17 8 23 5 5 18 33 30 62 15 38 18 54 9 56 -21 7 -100 24 -162 36
-33 6 -78 16 -100 22 -79 20 -120 30 -145 38 -14 4 -45 13 -70 20 -25 6 -53
16 -62 21 -10 5 -25 9 -33 9 -8 0 -23 4 -33 9 -9 5 -44 19 -77 31 -107 40
-138 54 -280 125 -350 176 -591 395 -721 653 -24 48 -44 94 -44 103 0 8 -4 19
-8 25 -11 11 -28 94 -43 197 -7 56 -7 98 1 155 25 166 34 200 97 340 39 86
152 241 243 333 116 116 156 150 285 238 80 54 278 171 290 171 2 0 41 17 87
38 175 81 442 172 457 156 15 -16 246 -367 294 -446 69 -112 188 -349 231
-457 78 -196 123 -359 153 -556 17 -113 8 -408 -17 -505 -5 -19 -14 -62 -20
-95 -7 -33 -16 -71 -20 -85 -7 -23 -13 -45 -42 -155 -19 -71 -50 -170 -59
-187 -5 -10 -9 -27 -9 -37 0 -11 -4 -23 -10 -26 -5 -3 -10 -17 -10 -30 0 -13
-4 -27 -10 -30 -5 -3 -10 -15 -10 -26 0 -10 -4 -27 -9 -37 -5 -9 -18 -42 -29
-72 -27 -74 -81 -219 -94 -250 -6 -14 -15 -35 -19 -47 -5 -13 -13 -34 -19 -48
-5 -14 -14 -35 -19 -47 -20 -53 -42 -107 -64 -158 -9 -19 -25 -60 -37 -90 -22
-57 -33 -82 -69 -162 -11 -26 -21 -50 -21 -53 0 -2 -13 -34 -30 -70 -16 -36
-30 -69 -30 -73 0 -5 -9 -27 -20 -50 -11 -22 -20 -47 -20 -55 0 -7 -4 -17 -9
-22 -5 -6 -12 -25 -16 -43 -5 -25 -3 -33 10 -38 33 -13 84 47 156 181 60 113
366 725 389 780 5 11 27 60 50 108 22 49 40 91 40 93 0 2 11 27 24 56 33 73
145 353 162 408 8 25 19 53 24 62 6 10 10 25 10 33 0 8 4 23 9 33 21 42 70
224 101 377 17 81 17 277 0 345 -58 240 -213 575 -421 910 -28 47 -57 94 -63
105 -23 43 -253 383 -302 448 -88 115 -163 160 -214 127z"/>
<path d="M4520 4419 c-25 -17 -72 -67 -105 -112 -77 -105 -319 -470 -364 -550
-10 -18 -50 -87 -89 -154 -60 -105 -197 -375 -222 -438 -13 -35 -27 -69 -38
-95 -33 -77 -65 -195 -82 -304 -15 -94 5 -252 58 -456 29 -111 132 -413 145
-427 4 -3 7 -13 7 -20 0 -8 9 -33 20 -55 11 -23 20 -45 20 -50 0 -4 14 -37 30
-73 17 -36 30 -68 30 -70 0 -2 11 -29 25 -60 14 -30 37 -81 51 -112 65 -146
88 -195 226 -472 163 -327 246 -485 279 -534 64 -93 126 -86 88 10 -6 15 -15
37 -19 48 -4 11 -15 36 -23 55 -9 19 -25 60 -37 90 -12 30 -32 78 -46 108 -13
29 -24 55 -24 57 0 3 -9 27 -21 53 -12 26 -25 56 -29 67 -4 11 -15 36 -23 55
-8 19 -50 123 -92 230 -81 205 -89 226 -104 263 -6 12 -17 42 -25 67 -29 87
-53 150 -59 157 -4 3 -7 17 -7 29 0 13 -4 26 -10 29 -5 3 -10 15 -10 26 0 10
-4 27 -9 37 -5 9 -15 37 -21 62 -7 25 -21 72 -32 105 -25 82 -34 112 -47 170
-7 28 -16 66 -21 85 -5 19 -13 60 -19 90 -5 30 -15 81 -21 113 -14 70 -15 366
-1 428 5 24 15 76 21 114 7 39 16 84 20 100 5 17 14 50 21 75 15 59 48 159 61
190 6 14 14 34 18 45 15 42 30 74 98 215 96 198 186 345 414 678 16 23 34 42
39 42 13 0 257 -82 329 -110 30 -12 88 -37 128 -56 41 -19 75 -34 77 -34 7 0
176 -96 235 -133 204 -129 393 -308 501 -472 60 -92 79 -127 114 -210 32 -77
40 -109 61 -245 12 -76 12 -113 4 -185 -17 -137 -37 -203 -97 -326 -102 -206
-303 -410 -554 -561 -89 -54 -239 -130 -312 -159 -29 -11 -65 -27 -82 -34 -56
-26 -285 -98 -392 -124 -21 -5 -56 -14 -78 -19 -22 -6 -65 -15 -95 -21 -30 -6
-68 -13 -85 -16 -16 -4 -47 -9 -67 -12 -21 -3 -38 -9 -38 -15 0 -5 11 -34 25
-64 14 -30 25 -57 25 -59 0 -2 14 -34 30 -70 16 -36 30 -68 30 -70 0 -3 10
-27 21 -53 12 -26 27 -60 34 -77 7 -16 20 -47 29 -67 9 -21 23 -55 32 -75 9
-21 22 -51 30 -67 8 -16 14 -34 14 -40 0 -6 8 -21 18 -32 l17 -22 75 20 c41
11 90 23 108 29 17 5 47 13 65 18 75 21 254 85 264 94 3 4 12 7 20 7 7 0 35 9
61 21 26 12 56 25 67 29 157 65 383 188 549 299 224 150 410 314 536 471 25
30 47 57 50 60 3 3 33 46 66 95 60 90 130 219 153 285 7 19 17 44 21 55 7 19
23 72 41 140 68 261 15 564 -146 830 -80 132 -236 310 -365 415 -30 25 -61 51
-68 57 -7 7 -17 13 -20 13 -4 0 -18 10 -32 23 -25 22 -131 93 -205 138 -132
79 -439 229 -468 229 -7 0 -17 4 -23 9 -5 5 -38 18 -74 30 -36 12 -73 26 -82
31 -10 6 -25 10 -33 10 -8 0 -23 4 -33 9 -9 5 -46 18 -82 28 -86 27 -136 40
-267 72 -21 5 -57 14 -79 20 -60 16 -74 13 -124 -20z"/>
<path d="M3478 4389 c-54 -37 -327 -179 -345 -179 -4 0 -21 -11 -38 -24 l-30
-24 45 -49 c113 -124 234 -310 355 -545 34 -67 66 -123 71 -125 5 -1 30 41 57
95 113 230 265 467 373 581 19 20 34 39 34 42 0 13 -30 30 -191 110 -155 77
-250 133 -257 151 -6 13 -14 9 -74 -33z m76 -78 c5 -8 77 -52 146 -89 83 -44
130 -78 130 -94 0 -50 -256 -418 -292 -418 -24 0 -83 71 -180 217 -90 135
-118 184 -118 205 0 16 20 29 170 111 30 17 71 41 90 54 38 25 46 27 54 14z"/>
<path d="M3203 1558 c-11 -12 -67 -128 -123 -253 -21 -47 -53 -117 -105 -230
-87 -187 -105 -229 -98 -236 4 -4 28 -9 53 -12 25 -3 99 -11 165 -19 161 -18
709 -18 870 0 66 8 140 16 165 19 25 3 49 9 54 13 5 5 -2 31 -17 62 -14 29
-37 79 -51 110 -14 32 -42 93 -62 135 -43 93 -79 170 -128 278 -20 44 -43 91
-50 103 l-13 24 -289 3 c-159 1 -305 6 -324 10 -26 5 -39 3 -47 -7z"/>
</g>
</svg>
